<svg xmlns="http://www.w3.org/2000/svg" xmlns:xlink="http://www.w3.org/1999/xlink" contentStyleType="text/css" height="759px" preserveAspectRatio="none" style="width:1505px;height:759px;background:#FFFFFF;" version="1.1" viewBox="0 0 1505 759" width="1505px" zoomAndPan="magnify"><defs/><g><!--cluster Frontend--><g id="cluster_Frontend"><path d="M8.5,6 L83.6563,6 A3.75,3.75 0 0 1 86.1563,8.5 L93.1563,30.8438 L676.5,30.8438 A2.5,2.5 0 0 1 679,33.3438 L679,445.87 A2.5,2.5 0 0 1 676.5,448.37 L8.5,448.37 A2.5,2.5 0 0 1 6,445.87 L6,8.5 A2.5,2.5 0 0 1 8.5,6 " fill="none" style="stroke:#000000;stroke-width:1.5;"/><line style="stroke:#000000;stroke-width:1.5;" x1="6" x2="93.1563" y1="30.8438" y2="30.8438"/><text fill="#000000" font-family="sans-serif" font-size="16" font-weight="bold" lengthAdjust="spacing" textLength="74.1563" x="10" y="23.4688">Frontend</text></g><!--cluster Backend--><g id="cluster_Backend"><path d="M721.5,163.84 L791.1094,163.84 A3.75,3.75 0 0 1 793.6094,166.34 L800.6094,188.6837 L1090.5,188.6837 A2.5,2.5 0 0 1 1093,191.1837 L1093,455.3 A2.5,2.5 0 0 1 1090.5,457.8 L721.5,457.8 A2.5,2.5 0 0 1 719,455.3 L719,166.34 A2.5,2.5 0 0 1 721.5,163.84 " fill="none" style="stroke:#000000;stroke-width:1.5;"/><line style="stroke:#000000;stroke-width:1.5;" x1="719" x2="800.6094" y1="188.6837" y2="188.6837"/><text fill="#000000" font-family="sans-serif" font-size="16" font-weight="bold" lengthAdjust="spacing" textLength="68.6094" x="723" y="181.3087">Backend</text></g><!--cluster Database--><g id="cluster_Database"><path d="M425.5,506.8 L502.9141,506.8 A3.75,3.75 0 0 1 505.4141,509.3 L512.4141,531.6438 L770.5,531.6438 A2.5,2.5 0 0 1 773,534.1438 L773,749.67 A2.5,2.5 0 0 1 770.5,752.17 L425.5,752.17 A2.5,2.5 0 0 1 423,749.67 L423,509.3 A2.5,2.5 0 0 1 425.5,506.8 " fill="none" style="stroke:#000000;stroke-width:1.5;"/><line style="stroke:#000000;stroke-width:1.5;" x1="423" x2="512.4141" y1="531.6438" y2="531.6438"/><text fill="#000000" font-family="sans-serif" font-size="16" font-weight="bold" lengthAdjust="spacing" textLength="76.4141" x="427" y="524.2688">Database</text></g><!--cluster Authentication--><g id="cluster_Authentication"><path d="M1233.5,340.53 L1355.6875,340.53 A3.75,3.75 0 0 1 1358.1875,343.03 L1365.1875,365.3738 L1443.5,365.3738 A2.5,2.5 0 0 1 1446,367.8738 L1446,445.87 A2.5,2.5 0 0 1 1443.5,448.37 L1233.5,448.37 A2.5,2.5 0 0 1 1231,445.87 L1231,343.03 A2.5,2.5 0 0 1 1233.5,340.53 " fill="none" style="stroke:#000000;stroke-width:1.5;"/><line style="stroke:#000000;stroke-width:1.5;" x1="1231" x2="1365.1875" y1="365.3738" y2="365.3738"/><text fill="#000000" font-family="sans-serif" font-size="16" font-weight="bold" lengthAdjust="spacing" textLength="121.1875" x="1235" y="357.9988">Authentication</text></g><!--entity React App--><g id="elem_React App"><rect fill="#F1F1F1" height="38.8438" rx="2.5" ry="2.5" style="stroke:#181818;stroke-width:0.5;" width="98.2891" x="76.86" y="51"/><text fill="#000000" font-family="sans-serif" font-size="16" lengthAdjust="spacing" textLength="42.0469" x="86.86" y="76.4688">React</text><text fill="#000000" font-family="sans-serif" font-size="16" lengthAdjust="spacing" textLength="5.0625" x="128.9069" y="76.4688">&#160;</text><text fill="#000000" font-family="sans-serif" font-size="16" lengthAdjust="spacing" textLength="31.1797" x="133.9694" y="76.4688">App</text></g><!--entity Home--><g id="elem_Home"><rect fill="#F1F1F1" height="38.8438" rx="2.5" ry="2.5" style="stroke:#181818;stroke-width:0.5;" width="65.4375" x="243.28" y="51"/><text fill="#000000" font-family="sans-serif" font-size="16" lengthAdjust="spacing" textLength="45.4375" x="253.28" y="76.4688">Home</text></g><!--entity Login--><g id="elem_Login"><rect fill="#F1F1F1" height="38.8438" rx="2.5" ry="2.5" style="stroke:#181818;stroke-width:0.5;" width="62.8906" x="359.55" y="51"/><text fill="#000000" font-family="sans-serif" font-size="16" lengthAdjust="spacing" textLength="42.8906" x="369.55" y="76.4688">Login</text></g><!--entity StudentDashboard--><g id="elem_StudentDashboard"><rect fill="#F1F1F1" height="38.8438" rx="2.5" ry="2.5" style="stroke:#181818;stroke-width:0.5;" width="163.6875" x="465.16" y="51"/><text fill="#000000" font-family="sans-serif" font-size="16" lengthAdjust="spacing" textLength="143.6875" x="475.16" y="76.4688">StudentDashboard</text></g><!--entity InstructorDashboard--><g id="elem_InstructorDashboard"><rect fill="#F1F1F1" height="38.8438" rx="2.5" ry="2.5" style="stroke:#181818;stroke-width:0.5;" width="179.9688" x="30.02" y="218.26"/><text fill="#000000" font-family="sans-serif" font-size="16" lengthAdjust="spacing" textLength="159.9688" x="40.02" y="243.7288">InstructorDashboard</text></g><!--entity CreateTeams--><g id="elem_CreateTeams"><rect fill="#F1F1F1" height="38.8438" rx="2.5" ry="2.5" style="stroke:#181818;stroke-width:0.5;" width="121.2266" x="245.39" y="218.26"/><text fill="#000000" font-family="sans-serif" font-size="16" lengthAdjust="spacing" textLength="101.2266" x="255.39" y="243.7288">CreateTeams</text></g><!--entity TeamList--><g id="elem_TeamList"><rect fill="#F1F1F1" height="38.8438" rx="2.5" ry="2.5" style="stroke:#181818;stroke-width:0.5;" width="90.1016" x="401.95" y="218.26"/><text fill="#000000" font-family="sans-serif" font-size="16" lengthAdjust="spacing" textLength="70.1016" x="411.95" y="243.7288">TeamList</text></g><!--entity TeamDetails--><g id="elem_TeamDetails"><rect fill="#F1F1F1" height="38.8438" rx="2.5" ry="2.5" style="stroke:#181818;stroke-width:0.5;" width="115.9297" x="527.04" y="218.26"/><text fill="#000000" font-family="sans-serif" font-size="16" lengthAdjust="spacing" textLength="95.9297" x="537.04" y="243.7288">TeamDetails</text></g><!--entity TeammatesList--><g id="elem_TeammatesList"><rect fill="#F1F1F1" height="38.8438" rx="2.5" ry="2.5" style="stroke:#181818;stroke-width:0.5;" width="136.9297" x="72.54" y="385.53"/><text fill="#000000" font-family="sans-serif" font-size="16" lengthAdjust="spacing" textLength="116.9297" x="82.54" y="410.9988">TeammatesList</text></g><!--entity PeerEvaluationForm--><g id="elem_PeerEvaluationForm"><rect fill="#F1F1F1" height="38.8438" rx="2.5" ry="2.5" style="stroke:#181818;stroke-width:0.5;" width="172.6563" x="244.67" y="385.53"/><text fill="#000000" font-family="sans-serif" font-size="16" lengthAdjust="spacing" textLength="152.6563" x="254.67" y="410.9988">PeerEvaluationForm</text></g><!--entity PeerEvaluationIntro--><g id="elem_PeerEvaluationIntro"><rect fill="#F1F1F1" height="38.8438" rx="2.5" ry="2.5" style="stroke:#181818;stroke-width:0.5;" width="169.6641" x="452.17" y="385.53"/><text fill="#000000" font-family="sans-serif" font-size="16" lengthAdjust="spacing" textLength="149.6641" x="462.17" y="410.9988">PeerEvaluationIntro</text></g><!--entity Express API--><g id="elem_Express API"><rect fill="#F1F1F1" height="57.6875" rx="2.5" ry="2.5" style="stroke:#181818;stroke-width:0.5;" width="80.3281" x="742.84" y="208.84"/><text fill="#000000" font-family="sans-serif" font-size="16" lengthAdjust="spacing" textLength="60.3281" x="752.84" y="234.3087">Express</text><text fill="#000000" font-family="sans-serif" font-size="16" lengthAdjust="spacing" textLength="24.4922" x="752.84" y="253.1525">API</text></g><!--entity Courses API--><g id="elem_Courses API"><rect fill="#F1F1F1" height="57.6875" rx="2.5" ry="2.5" style="stroke:#181818;stroke-width:0.5;" width="82.6016" x="857.7" y="208.84"/><text fill="#000000" font-family="sans-serif" font-size="16" lengthAdjust="spacing" textLength="62.6016" x="867.7" y="234.3087">Courses</text><text fill="#000000" font-family="sans-serif" font-size="16" lengthAdjust="spacing" textLength="24.4922" x="867.7" y="253.1525">API</text></g><!--entity Teams API--><g id="elem_Teams API"><rect fill="#F1F1F1" height="57.6875" rx="2.5" ry="2.5" style="stroke:#181818;stroke-width:0.5;" width="70.9609" x="975.52" y="208.84"/><text fill="#000000" font-family="sans-serif" font-size="16" lengthAdjust="spacing" textLength="50.9609" x="985.52" y="234.3087">Teams</text><text fill="#000000" font-family="sans-serif" font-size="16" lengthAdjust="spacing" textLength="24.4922" x="985.52" y="253.1525">API</text></g><!--entity Authentication API--><g id="elem_Authentication API"><rect fill="#F1F1F1" height="57.6875" rx="2.5" ry="2.5" style="stroke:#181818;stroke-width:0.5;" width="133.7344" x="743.13" y="376.11"/><text fill="#000000" font-family="sans-serif" font-size="16" lengthAdjust="spacing" textLength="113.7344" x="753.13" y="401.5787">Authentication</text><text fill="#000000" font-family="sans-serif" font-size="16" lengthAdjust="spacing" textLength="24.4922" x="753.13" y="420.4225">API</text></g><!--entity Verify Token API--><g id="elem_Verify Token API"><rect fill="#F1F1F1" height="57.6875" rx="2.5" ry="2.5" style="stroke:#181818;stroke-width:0.5;" width="97.6953" x="912.15" y="376.11"/><text fill="#000000" font-family="sans-serif" font-size="16" lengthAdjust="spacing" textLength="44.7891" x="922.15" y="401.5787">Verify</text><text fill="#000000" font-family="sans-serif" font-size="16" lengthAdjust="spacing" textLength="48.1406" x="922.15" y="420.4225">Token</text><text fill="#000000" font-family="sans-serif" font-size="16" lengthAdjust="spacing" textLength="5.0625" x="970.2906" y="420.4225">&#160;</text><text fill="#000000" font-family="sans-serif" font-size="16" lengthAdjust="spacing" textLength="24.4922" x="975.3531" y="420.4225">API</text></g><!--entity LowDB--><g id="elem_LowDB"><rect fill="#F1F1F1" height="38.8438" rx="2.5" ry="2.5" style="stroke:#181818;stroke-width:0.5;" width="71.875" x="447.06" y="561.22"/><text fill="#000000" font-family="sans-serif" font-size="16" lengthAdjust="spacing" textLength="51.875" x="457.06" y="586.6887">LowDB</text></g><!--entity User Table--><g id="elem_User Table"><rect fill="#F1F1F1" height="57.6875" rx="2.5" ry="2.5" style="stroke:#181818;stroke-width:0.5;" width="62.5625" x="553.72" y="551.8"/><text fill="#000000" font-family="sans-serif" font-size="16" lengthAdjust="spacing" textLength="34.7031" x="563.72" y="577.2688">User</text><text fill="#000000" font-family="sans-serif" font-size="16" lengthAdjust="spacing" textLength="42.5625" x="563.72" y="596.1125">Table</text></g><!--entity Course Table--><g id="elem_Course Table"><rect fill="#F1F1F1" height="57.6875" rx="2.5" ry="2.5" style="stroke:#181818;stroke-width:0.5;" width="74.4453" x="651.78" y="551.8"/><text fill="#000000" font-family="sans-serif" font-size="16" lengthAdjust="spacing" textLength="54.4453" x="661.78" y="577.2688">Course</text><text fill="#000000" font-family="sans-serif" font-size="16" lengthAdjust="spacing" textLength="42.5625" x="661.78" y="596.1125">Table</text></g><!--entity Team Table--><g id="elem_Team Table"><rect fill="#F1F1F1" height="57.6875" rx="2.5" ry="2.5" style="stroke:#181818;stroke-width:0.5;" width="62.8047" x="451.6" y="670.48"/><text fill="#000000" font-family="sans-serif" font-size="16" lengthAdjust="spacing" textLength="42.8047" x="461.6" y="695.9487">Team</text><text fill="#000000" font-family="sans-serif" font-size="16" lengthAdjust="spacing" textLength="42.5625" x="461.6" y="714.7925">Table</text></g><!--entity PeerEvaluation Table--><g id="elem_PeerEvaluation Table"><rect fill="#F1F1F1" height="57.6875" rx="2.5" ry="2.5" style="stroke:#181818;stroke-width:0.5;" width="132.7656" x="549.62" y="670.48"/><text fill="#000000" font-family="sans-serif" font-size="16" lengthAdjust="spacing" textLength="112.7656" x="559.62" y="695.9487">PeerEvaluation</text><text fill="#000000" font-family="sans-serif" font-size="16" lengthAdjust="spacing" textLength="42.5625" x="559.62" y="714.7925">Table</text></g><!--entity Clerk--><g id="elem_Clerk"><rect fill="#F1F1F1" height="38.8438" rx="2.5" ry="2.5" style="stroke:#181818;stroke-width:0.5;" width="60.5078" x="1254.75" y="385.53"/><text fill="#000000" font-family="sans-serif" font-size="16" lengthAdjust="spacing" textLength="40.5078" x="1264.75" y="410.9988">Clerk</text></g><!--entity JWT--><g id="elem_JWT"><rect fill="#F1F1F1" height="38.8438" rx="2.5" ry="2.5" style="stroke:#181818;stroke-width:0.5;" width="48.7813" x="1350.61" y="385.53"/><text fill="#000000" font-family="sans-serif" font-size="16" lengthAdjust="spacing" textLength="28.7813" x="1360.61" y="410.9988">JWT</text></g><!--link Frontend to Backend--><g id="link_Frontend_Backend"><path d="M679.4729,71.9589 C679.7096,71.9721 679.95,71.9855 680.1942,71.9991 C680.6824,72.0265 681.1854,72.0548 681.7029,72.0842 C682.7378,72.143 683.8307,72.206 684.9794,72.2731 C687.2769,72.4075 689.7981,72.5589 692.5271,72.7282 C703.4432,73.4054 717.6842,74.3685 734.2341,75.6727 C767.3338,78.2809 809.6687,82.2531 853.11,88.0287 C939.9925,99.58 1031.3,118.345 1062,147.84 C1065.3713,151.08 1068.2444,154.7531 1070.6894,158.7165 C1071.3007,159.7074 1071.8852,160.7164 1072.444,161.7413 C1072.7234,162.2537 1072.9964,162.7701 1073.2632,163.2903 C1073.3299,163.4203 1070.6914,183.0385 1070.7573,183.169 " fill="none" id="Frontend-to-Backend" style="stroke:#181818;stroke-width:1;"/><polygon fill="#181818" points="1073.462,188.5248,1072.9754,178.688,1071.2081,184.0617,1065.8344,182.2943,1073.462,188.5248" style="stroke:#181818;stroke-width:1;"/><text fill="#000000" font-family="sans-serif" font-size="16" lengthAdjust="spacing" textLength="230.9844" x="1048.72" y="136.3087">Fetches Data (HTTP Requests)</text></g><!--link Backend to Database--><g id="link_Backend_Database"><path d="M1093.0389,289.2567 C1093.1242,289.8665 1093.2088,290.4802 1093.2927,291.0978 C1093.6284,293.5682 1093.9523,296.1001 1094.2605,298.6875 C1095.4934,309.0372 1096.475,320.2763 1096.95,332.03 C1098.85,379.045 1092.645,434.295 1062,473.8 C1021.155,526.44 952.1225,552.9625 890.6737,566.2975 C859.9494,572.965 831.1209,576.3356 808.6598,578.0256 C797.4293,578.8706 787.7906,579.2955 780.3026,579.5022 C778.4306,579.5539 776.6931,579.5919 775.0987,579.6195 C774.7001,579.6264 774.3104,579.6326 773.9298,579.6382 C773.7396,579.6411 779.551,579.5623 779.3653,579.5649 " fill="none" id="Backend-to-Database" style="stroke:#181818;stroke-width:1;"/><polygon fill="#181818" points="773.3658,579.6462,782.4193,583.5238,778.3654,579.5784,782.3107,575.5245,773.3658,579.6462" style="stroke:#181818;stroke-width:1;"/><text fill="#000000" font-family="sans-serif" font-size="16" lengthAdjust="spacing" textLength="100.2188" x="1098.26" y="411.4187">Queries Data</text></g><!--link Frontend to Authentication--><g id="link_Frontend_Authentication"><path d="M679.3049,71.6713 C680.5589,71.7027 681.9209,71.7372 683.3871,71.7747 C689.252,71.9249 696.7851,72.1244 705.7538,72.3758 C723.6912,72.8784 747.3709,73.588 774.9311,74.5236 C830.0516,76.3947 900.6944,79.1694 971.9663,82.9987 C1114.51,90.6575 1259.57,102.535 1288,119.84 C1346.435,155.41 1382.8825,222.3875 1404.9825,282.38 C1410.5075,297.3781 1415.1358,311.9397 1418.9867,325.4648 C1419.9495,328.8461 1420.8636,332.1626 1421.731,335.4049 C1422.1648,337.0261 1421.0803,357.6647 1421.4909,359.2476 " fill="none" id="Frontend-to-Authentication" style="stroke:#181818;stroke-width:1;"/><polygon fill="#181818" points="1422.9974,365.0554,1424.6095,355.3394,1421.742,360.2156,1416.8658,357.348,1422.9974,365.0554" style="stroke:#181818;stroke-width:1;"/><text fill="#000000" font-family="sans-serif" font-size="16" lengthAdjust="spacing" textLength="98.2891" x="1399.06" y="244.1587">Login / Auth</text></g><!--link Backend to Authentication--><g id="link_Backend_Authentication"><path d="M1093.2357,244.3194 C1093.3617,244.3873 1093.4888,244.4557 1093.6169,244.5246 C1094.1294,244.8004 1094.6588,245.0847 1095.2049,245.377 C1096.2969,245.9616 1097.4555,246.5787 1098.6776,247.2259 C1101.1217,248.5202 1103.8202,249.9346 1106.7503,251.4502 C1118.4706,257.5122 1133.8962,265.1906 1151.5725,273.2587 C1186.925,289.395 1231.28,307.09 1273,316.53 C1288.41,320.02 1402.75,314.54 1415,324.53 C1418.26,327.19 1421.0475,330.2916 1423.4281,333.6976 C1424.6184,335.4006 1425.707,337.1798 1426.702,339.0179 C1426.9508,339.4774 1424.4749,359.4357 1424.7121,359.9024 " fill="none" id="Backend-to-Authentication" style="stroke:#181818;stroke-width:1;"/><polygon fill="#181818" points="1427.4309,365.251,1426.9184,355.4155,1425.1652,360.7938,1419.7869,359.0406,1427.4309,365.251" style="stroke:#181818;stroke-width:1;"/><text fill="#000000" font-family="sans-serif" font-size="16" lengthAdjust="spacing" textLength="97.9922" x="1274" y="312.9988">Verify Token</text></g><!--SRC=[RLF1JkCm4BtxAqQvB7j0b0j2UrYfKAfsrKE0i1og7gR9a5XDx61FAB3YtzTrdP2qpSb-R-RvlR5ZDrBLQB22L5UrLgJuaJzA0aCfeyfB4hOhgJ6dPvbn0LUZqG4-8vaN3DS38gCNR4gUQgSgFmakhtharc2zLxiUYgKRfnTZbacLm-L8Y1ymDKw2L0RndXMX2gAMYU2V0FSj7mXJXd5Th_RxcQueB1Swbogi7xd9NDW9scAjqMG1dYlBfabPcqFcrX0o9OIL3SXklP2MUzi9CSgoNr2v9jkhYedCtHkM3RBKQgfDTPAOApPw9RvsuMzSrfFP0z55ltkl3LaButZUcjQDiTH7V83UVjnmuUOWKtziZ_XBHhvyGABT4NlOcvaWunej7RjfcSxEGcydDq7joPA11DSb3PmDe9sr0J0SIKjv6mUsZymC-SxIRKbc4zJ_F2T1x85ANsOBMLjO4s_9PUv-22kMxIjRmVdvRrY6mQ_Wbtk0n6dXHhoB3sUp98cTtcj3bktFI7oN-iPsHhxpld4Z3ftHqHd31Bx1lr-uyE6Ff4_Kzwym4ly1]--></g></svg>