<svg xmlns="http://www.w3.org/2000/svg" xmlns:xlink="http://www.w3.org/1999/xlink" contentStyleType="text/css" height="717px" preserveAspectRatio="none" style="width:981px;height:717px;background:#FFFFFF;" version="1.1" viewBox="0 0 981 717" width="981px" zoomAndPan="magnify"><defs/><g><!--class User--><g id="elem_User"><rect codeLine="6" fill="#F1F1F1" height="113.9531" id="User" rx="2.5" ry="2.5" style="stroke:#181818;stroke-width:0.5;" width="136.2979" x="489.66" y="7"/><ellipse cx="538.3763" cy="23" fill="#ADD1B2" rx="11" ry="11" style="stroke:#181818;stroke-width:1;"/><path d="M540.8495,29.1431 Q540.2684,29.4419 539.6292,29.5913 Q538.9901,29.7407 538.2845,29.7407 Q535.7777,29.7407 534.4579,28.0889 Q533.138,26.437 533.138,23.3159 Q533.138,20.1865 534.4579,18.5347 Q535.7777,16.8828 538.2845,16.8828 Q538.9901,16.8828 539.6375,17.0322 Q540.285,17.1816 540.8495,17.4805 L540.8495,20.2031 Q540.2186,19.6221 539.6251,19.3523 Q539.0316,19.0825 538.4007,19.0825 Q537.056,19.0825 536.3712,20.1492 Q535.6864,21.2158 535.6864,23.3159 Q535.6864,25.4077 536.3712,26.4744 Q537.056,27.541 538.4007,27.541 Q539.0316,27.541 539.6251,27.2712 Q540.2186,27.0015 540.8495,26.4204 Z " fill="#000000"/><text fill="#000000" font-family="sans-serif" font-size="14" lengthAdjust="spacing" textLength="30.3652" x="558.8763" y="28.291">User</text><line style="stroke:#181818;stroke-width:0.5;" x1="490.66" x2="624.9579" y1="39" y2="39"/><text fill="#000000" font-family="sans-serif" font-size="14" lengthAdjust="spacing" textLength="96.25" x="495.66" y="56.5352">+email: string</text><text fill="#000000" font-family="sans-serif" font-size="14" lengthAdjust="spacing" textLength="124.2979" x="495.66" y="73.0234">+password: string</text><line style="stroke:#181818;stroke-width:0.5;" x1="490.66" x2="624.9579" y1="79.9766" y2="79.9766"/><text fill="#000000" font-family="sans-serif" font-size="14" lengthAdjust="spacing" textLength="117.4824" x="495.66" y="97.5117">+login(): boolean</text><text fill="#000000" font-family="sans-serif" font-size="14" lengthAdjust="spacing" textLength="101.6982" x="495.66" y="114">+logout(): void</text></g><!--class Student--><g id="elem_Student"><rect codeLine="13" fill="#F1F1F1" height="97.4648" id="Student" rx="2.5" ry="2.5" style="stroke:#181818;stroke-width:0.5;" width="215.458" x="334.08" y="206.2"/><ellipse cx="411.5585" cy="222.2" fill="#ADD1B2" rx="11" ry="11" style="stroke:#181818;stroke-width:1;"/><path d="M414.0317,228.3431 Q413.4506,228.6419 412.8114,228.7913 Q412.1723,228.9407 411.4667,228.9407 Q408.9599,228.9407 407.6401,227.2889 Q406.3202,225.637 406.3202,222.5159 Q406.3202,219.3865 407.6401,217.7347 Q408.9599,216.0828 411.4667,216.0828 Q412.1723,216.0828 412.8197,216.2322 Q413.4672,216.3816 414.0317,216.6805 L414.0317,219.4031 Q413.4008,218.8221 412.8073,218.5523 Q412.2138,218.2825 411.5829,218.2825 Q410.2382,218.2825 409.5534,219.3492 Q408.8686,220.4158 408.8686,222.5159 Q408.8686,224.6077 409.5534,225.6744 Q410.2382,226.741 411.5829,226.741 Q412.2138,226.741 412.8073,226.4712 Q413.4008,226.2015 414.0317,225.6204 Z " fill="#000000"/><text fill="#000000" font-family="sans-serif" font-size="14" lengthAdjust="spacing" textLength="52.001" x="432.0585" y="227.491">Student</text><line style="stroke:#181818;stroke-width:0.5;" x1="335.08" x2="548.538" y1="238.2" y2="238.2"/><text fill="#000000" font-family="sans-serif" font-size="14" lengthAdjust="spacing" textLength="123.9971" x="340.08" y="255.7352">+studentId: string</text><line style="stroke:#181818;stroke-width:0.5;" x1="335.08" x2="548.538" y1="262.6883" y2="262.6883"/><text fill="#000000" font-family="sans-serif" font-size="14" lengthAdjust="spacing" textLength="150.124" x="340.08" y="280.2234">+viewTeams(): Team[]</text><text fill="#000000" font-family="sans-serif" font-size="14" lengthAdjust="spacing" textLength="203.458" x="340.08" y="296.7117">+submitPeerEvaluation(): void</text></g><!--class Instructor--><g id="elem_Instructor"><rect codeLine="19" fill="#F1F1F1" height="113.9531" id="Instructor" rx="2.5" ry="2.5" style="stroke:#181818;stroke-width:0.5;" width="179.877" x="584.87" y="197.95"/><ellipse cx="637.4349" cy="213.95" fill="#ADD1B2" rx="11" ry="11" style="stroke:#181818;stroke-width:1;"/><path d="M639.9081,220.0931 Q639.327,220.3919 638.6879,220.5413 Q638.0487,220.6907 637.3431,220.6907 Q634.8363,220.6907 633.5165,219.0389 Q632.1967,217.387 632.1967,214.2659 Q632.1967,211.1365 633.5165,209.4847 Q634.8363,207.8328 637.3431,207.8328 Q638.0487,207.8328 638.6962,207.9822 Q639.3436,208.1316 639.9081,208.4305 L639.9081,211.1531 Q639.2772,210.5721 638.6837,210.3023 Q638.0902,210.0325 637.4594,210.0325 Q636.1146,210.0325 635.4298,211.0992 Q634.745,212.1658 634.745,214.2659 Q634.745,216.3577 635.4298,217.4244 Q636.1146,218.491 637.4594,218.491 Q638.0902,218.491 638.6837,218.2212 Q639.2772,217.9515 639.9081,217.3704 Z " fill="#000000"/><text fill="#000000" font-family="sans-serif" font-size="14" lengthAdjust="spacing" textLength="66.2471" x="657.9349" y="219.241">Instructor</text><line style="stroke:#181818;stroke-width:0.5;" x1="585.87" x2="763.747" y1="229.95" y2="229.95"/><text fill="#000000" font-family="sans-serif" font-size="14" lengthAdjust="spacing" textLength="138.6602" x="590.87" y="247.4852">+instructorId: string</text><line style="stroke:#181818;stroke-width:0.5;" x1="585.87" x2="763.747" y1="254.4383" y2="254.4383"/><text fill="#000000" font-family="sans-serif" font-size="14" lengthAdjust="spacing" textLength="145.4688" x="590.87" y="271.9734">+createTeam(): Team</text><text fill="#000000" font-family="sans-serif" font-size="14" lengthAdjust="spacing" textLength="160.4053" x="590.87" y="288.4617">+assignStudents(): void</text><text fill="#000000" font-family="sans-serif" font-size="14" lengthAdjust="spacing" textLength="167.877" x="590.87" y="304.95">+viewAllTeams(): Team[]</text></g><!--class Team--><g id="elem_Team"><rect codeLine="26" fill="#F1F1F1" height="130.4414" id="Team" rx="2.5" ry="2.5" style="stroke:#181818;stroke-width:0.5;" width="287.7686" x="334.92" y="579.86"/><ellipse cx="455.8272" cy="595.86" fill="#ADD1B2" rx="11" ry="11" style="stroke:#181818;stroke-width:1;"/><path d="M458.3004,602.0031 Q457.7193,602.3019 457.0802,602.4513 Q456.441,602.6007 455.7354,602.6007 Q453.2286,602.6007 451.9088,600.9489 Q450.5889,599.297 450.5889,596.1759 Q450.5889,593.0465 451.9088,591.3947 Q453.2286,589.7428 455.7354,589.7428 Q456.441,589.7428 457.0885,589.8922 Q457.7359,590.0416 458.3004,590.3405 L458.3004,593.0631 Q457.6695,592.4821 457.076,592.2123 Q456.4825,591.9425 455.8516,591.9425 Q454.5069,591.9425 453.8221,593.0092 Q453.1373,594.0758 453.1373,596.1759 Q453.1373,598.2677 453.8221,599.3344 Q454.5069,600.401 455.8516,600.401 Q456.4825,600.401 457.076,600.1312 Q457.6695,599.8615 458.3004,599.2804 Z " fill="#000000"/><text fill="#000000" font-family="sans-serif" font-size="14" lengthAdjust="spacing" textLength="37.4541" x="476.3272" y="601.151">Team</text><line style="stroke:#181818;stroke-width:0.5;" x1="335.92" x2="621.6886" y1="611.86" y2="611.86"/><text fill="#000000" font-family="sans-serif" font-size="14" lengthAdjust="spacing" textLength="106.2373" x="340.92" y="629.3952">+teamId: string</text><text fill="#000000" font-family="sans-serif" font-size="14" lengthAdjust="spacing" textLength="132.3369" x="340.92" y="645.8834">+teamName: string</text><text fill="#000000" font-family="sans-serif" font-size="14" lengthAdjust="spacing" textLength="139.8291" x="340.92" y="662.3717">+students: Student[]</text><line style="stroke:#181818;stroke-width:0.5;" x1="335.92" x2="621.6886" y1="669.3248" y2="669.3248"/><text fill="#000000" font-family="sans-serif" font-size="14" lengthAdjust="spacing" textLength="250.8789" x="340.92" y="686.86">+addMember(student: Student): void</text><text fill="#000000" font-family="sans-serif" font-size="14" lengthAdjust="spacing" textLength="275.7686" x="340.92" y="703.3483">+removeMember(student: Student): void</text></g><!--class Course--><g id="elem_Course"><rect codeLine="34" fill="#F1F1F1" height="113.9531" id="Course" rx="2.5" ry="2.5" style="stroke:#181818;stroke-width:0.5;" width="320.8818" x="653.37" y="388.91"/><ellipse cx="785.7411" cy="404.91" fill="#ADD1B2" rx="11" ry="11" style="stroke:#181818;stroke-width:1;"/><path d="M788.2142,411.0531 Q787.6332,411.3519 786.994,411.5013 Q786.3549,411.6507 785.6493,411.6507 Q783.1425,411.6507 781.8226,409.9989 Q780.5028,408.347 780.5028,405.2259 Q780.5028,402.0965 781.8226,400.4447 Q783.1425,398.7928 785.6493,398.7928 Q786.3549,398.7928 787.0023,398.9422 Q787.6498,399.0916 788.2142,399.3905 L788.2142,402.1131 Q787.5834,401.5321 786.9899,401.2623 Q786.3964,400.9925 785.7655,400.9925 Q784.4208,400.9925 783.736,402.0592 Q783.0512,403.1258 783.0512,405.2259 Q783.0512,407.3177 783.736,408.3844 Q784.4208,409.451 785.7655,409.451 Q786.3964,409.451 786.9899,409.1812 Q787.5834,408.9115 788.2142,408.3304 Z " fill="#000000"/><text fill="#000000" font-family="sans-serif" font-size="14" lengthAdjust="spacing" textLength="47.6396" x="806.2411" y="410.201">Course</text><line style="stroke:#181818;stroke-width:0.5;" x1="654.37" x2="973.2518" y1="420.91" y2="420.91"/><text fill="#000000" font-family="sans-serif" font-size="14" lengthAdjust="spacing" textLength="117.5234" x="659.37" y="438.4452">+courseId: string</text><text fill="#000000" font-family="sans-serif" font-size="14" lengthAdjust="spacing" textLength="143.623" x="659.37" y="454.9334">+courseName: string</text><text fill="#000000" font-family="sans-serif" font-size="14" lengthAdjust="spacing" textLength="139.8291" x="659.37" y="471.4217">+students: Student[]</text><line style="stroke:#181818;stroke-width:0.5;" x1="654.37" x2="973.2518" y1="478.3748" y2="478.3748"/><text fill="#000000" font-family="sans-serif" font-size="14" lengthAdjust="spacing" textLength="308.8818" x="659.37" y="495.91">+assignInstructor(instructor: Instructor): void</text></g><!--class PeerEvaluation--><g id="elem_PeerEvaluation"><rect codeLine="41" fill="#F1F1F1" height="80.9766" id="PeerEvaluation" rx="2.5" ry="2.5" style="stroke:#181818;stroke-width:0.5;" width="401.6143" x="7" y="405.39"/><ellipse cx="154.2222" cy="421.39" fill="#ADD1B2" rx="11" ry="11" style="stroke:#181818;stroke-width:1;"/><path d="M156.6953,427.5331 Q156.1143,427.8319 155.4751,427.9813 Q154.8359,428.1307 154.1304,428.1307 Q151.6235,428.1307 150.3037,426.4789 Q148.9839,424.827 148.9839,421.7059 Q148.9839,418.5765 150.3037,416.9247 Q151.6235,415.2728 154.1304,415.2728 Q154.8359,415.2728 155.4834,415.4222 Q156.1309,415.5716 156.6953,415.8705 L156.6953,418.5931 Q156.0645,418.0121 155.4709,417.7423 Q154.8774,417.4725 154.2466,417.4725 Q152.9019,417.4725 152.217,418.5392 Q151.5322,419.6058 151.5322,421.7059 Q151.5322,423.7977 152.217,424.8644 Q152.9019,425.931 154.2466,425.931 Q154.8774,425.931 155.4709,425.6612 Q156.0645,425.3915 156.6953,424.8104 Z " fill="#000000"/><text fill="#000000" font-family="sans-serif" font-size="14" lengthAdjust="spacing" textLength="98.6699" x="174.7222" y="426.681">PeerEvaluation</text><line style="stroke:#181818;stroke-width:0.5;" x1="8" x2="407.6143" y1="437.39" y2="437.39"/><text fill="#000000" font-family="sans-serif" font-size="14" lengthAdjust="spacing" textLength="135.208" x="13" y="454.9252">+evaluatorId: string</text><line style="stroke:#181818;stroke-width:0.5;" x1="8" x2="407.6143" y1="461.8783" y2="461.8783"/><text fill="#000000" font-family="sans-serif" font-size="14" lengthAdjust="spacing" textLength="389.6143" x="13" y="479.4134">+evaluateStudent(studentId: string, rating: number): void</text></g><!--reverse link User to Student--><g id="link_User_Student"><path codeLine="47" d="M513.7425,136.7498 C497.2525,163.6098 487.16,180.06 471.38,205.76 " fill="none" id="User-backto-Student" style="stroke:#181818;stroke-width:1;"/><polygon fill="none" points="523.16,121.41,508.6292,133.6107,518.8558,139.889,523.16,121.41" style="stroke:#181818;stroke-width:1;"/><text fill="#000000" font-family="sans-serif" font-size="13" lengthAdjust="spacing" textLength="47.6899" x="504.29" y="164.5184">Inherits</text></g><!--reverse link User to Instructor--><g id="link_User_Instructor"><path codeLine="48" d="M602.2264,136.7136 C617.1064,160.7436 624.96,173.42 639.84,197.46 " fill="none" id="User-backto-Instructor" style="stroke:#181818;stroke-width:1;"/><polygon fill="none" points="592.75,121.41,597.1252,139.8723,607.3275,133.5548,592.75,121.41" style="stroke:#181818;stroke-width:1;"/><text fill="#000000" font-family="sans-serif" font-size="13" lengthAdjust="spacing" textLength="47.6899" x="620.82" y="164.5184">Inherits</text></g><!--link Instructor to Team--><g id="link_Instructor_Team"><path codeLine="49" d="M635.4,312.26 C619.96,335.47 602.67,362.96 588.81,388.91 C555.23,451.78 525.9641,521.4956 505.3641,573.9256 " fill="none" id="Instructor-to-Team" style="stroke:#181818;stroke-width:1;"/><polygon fill="#181818" points="503.17,579.51,510.1842,572.5961,504.9985,574.8563,502.7383,569.6706,503.17,579.51" style="stroke:#181818;stroke-width:1;"/><text fill="#000000" font-family="sans-serif" font-size="13" lengthAdjust="spacing" textLength="45.1318" x="589.81" y="450.9484">creates</text></g><!--link Instructor to Course--><g id="link_Instructor_Course"><path codeLine="50" d="M716.32,312.37 C734,336.4 751.0252,359.5364 768.7052,383.5764 " fill="none" id="Instructor-to-Course" style="stroke:#181818;stroke-width:1;"/><polygon fill="#181818" points="772.26,388.41,770.1502,378.7898,769.2977,384.382,763.7054,383.5295,772.26,388.41" style="stroke:#181818;stroke-width:1;"/><text fill="#000000" font-family="sans-serif" font-size="13" lengthAdjust="spacing" textLength="47.8804" x="749.47" y="355.4784">teaches</text></g><!--link Team to Student--><g id="link_Team_Student"><path codeLine="51" d="M472.64,579.42 C465.24,501.75 453.5591,379.2529 446.9491,309.8829 " fill="none" id="Team-to-Student" style="stroke:#181818;stroke-width:1;"/><polygon fill="#181818" points="446.38,303.91,443.2517,313.2488,446.8543,308.8875,451.2157,312.49,446.38,303.91" style="stroke:#181818;stroke-width:1;"/><text fill="#000000" font-family="sans-serif" font-size="13" lengthAdjust="spacing" textLength="21.874" x="466.19" y="450.9484">has</text></g><!--link Student to PeerEvaluation--><g id="link_Student_PeerEvaluation"><path codeLine="52" d="M382.15,304.1 C343.43,335.37 298.2274,371.8597 261.7574,401.3197 " fill="none" id="Student-to-PeerEvaluation" style="stroke:#181818;stroke-width:1;"/><polygon fill="#181818" points="257.09,405.09,266.6047,402.5462,260.9795,401.9481,261.5776,396.3229,257.09,405.09" style="stroke:#181818;stroke-width:1;"/><text fill="#000000" font-family="sans-serif" font-size="13" lengthAdjust="spacing" textLength="50.2607" x="332.82" y="355.4784">submits</text></g><!--link PeerEvaluation to Team--><g id="link_PeerEvaluation_Team"><path codeLine="53" d="M262.65,486.79 C299.15,513.35 343.0786,545.3095 385.0586,575.8595 " fill="none" id="PeerEvaluation-to-Team" style="stroke:#181818;stroke-width:1;"/><polygon fill="#181818" points="389.91,579.39,384.9866,570.86,385.8672,576.4479,380.2793,577.3285,389.91,579.39" style="stroke:#181818;stroke-width:1;"/><text fill="#000000" font-family="sans-serif" font-size="13" lengthAdjust="spacing" textLength="58.8872" x="344.31" y="546.4284">evaluates</text></g><!--SRC=[bLFBIiGm5DttAowpcOeM55mL4GOVC0j5VAp4HTfUss2R3Bb91tpykqdRPFfOY5qbvvpUSt9pGnzSx9XY3UGr8zfehNXcD6vpAPxu9y9fH5F9hHIwOyxEesWDr_ZE1HTbJoB1dkiAcAz3m4G13UfA5XH5dGXU21LyHM2_OsmOhrCWgnTb3-siPYzLCKLhMN8H7wMGILaZ4m6LHZkubRo8Vhp5apO52krTgDzkPpLRZljdP0sv0cxn-ZReJTPm_O2eRbfM6wQv54kJhR35JAvbE0qFoDmgLyWqEW_lrUEs3Y_549U2HuYtgUjvmk3lzjvPs_NSqs7thC4fElI2KjyaVsXM57VOPAZYGH8KarGA6zdY7ygGyKeQHUXJvjrkqPiE_K_Ihcc7ziU7lgUZMrc4cLve6C4UMTxPGE3W7Y-cw0IKhIJA58HnxHWPhk4Hwyw6AhuZo53l4OL_9b7t1Yw-aoICgajUeU9wJ8v6RCIFq2IvxESWXLK_OxIQyyCTM8MTYBnoYkuNnntSLnMpXDyxRjOkA-dVXPNDg74AtpMh-WK0]--></g></svg>