<svg xmlns="http://www.w3.org/2000/svg" xmlns:xlink="http://www.w3.org/1999/xlink" contentStyleType="text/css" height="526px" preserveAspectRatio="none" style="width:1044px;height:526px;background:#FFFFFF;" version="1.1" viewBox="0 0 1044 526" width="1044px" zoomAndPan="magnify"><defs/><g><!--class App--><g id="elem_App"><rect codeLine="5" fill="#F1F1F1" height="179.9063" id="App" rx="2.5" ry="2.5" style="stroke:#181818;stroke-width:0.5;" width="176.5205" x="227.35" y="7"/><ellipse cx="297.7191" cy="23" fill="#ADD1B2" rx="11" ry="11" style="stroke:#181818;stroke-width:1;"/><path d="M300.1923,29.1431 Q299.6112,29.4419 298.9721,29.5913 Q298.3329,29.7407 297.6273,29.7407 Q295.1205,29.7407 293.8007,28.0889 Q292.4809,26.437 292.4809,23.3159 Q292.4809,20.1865 293.8007,18.5347 Q295.1205,16.8828 297.6273,16.8828 Q298.3329,16.8828 298.9804,17.0322 Q299.6278,17.1816 300.1923,17.4805 L300.1923,20.2031 Q299.5614,19.6221 298.9679,19.3523 Q298.3744,19.0825 297.7436,19.0825 Q296.3988,19.0825 295.714,20.1492 Q295.0292,21.2158 295.0292,23.3159 Q295.0292,25.4077 295.714,26.4744 Q296.3988,27.541 297.7436,27.541 Q298.3744,27.541 298.9679,27.2712 Q299.5614,27.0015 300.1923,26.4204 Z " fill="#000000"/><text fill="#000000" font-family="sans-serif" font-size="14" lengthAdjust="spacing" textLength="27.2822" x="318.2191" y="28.291">App</text><line style="stroke:#181818;stroke-width:0.5;" x1="228.35" x2="402.8705" y1="39" y2="39"/><ellipse cx="238.35" cy="52.7441" fill="none" rx="3" ry="3" style="stroke:#038048;stroke-width:1;"/><text fill="#000000" font-family="sans-serif" font-size="14" lengthAdjust="spacing" textLength="85.1211" x="247.35" y="56.5352">email: string</text><ellipse cx="238.35" cy="69.2324" fill="none" rx="3" ry="3" style="stroke:#038048;stroke-width:1;"/><text fill="#000000" font-family="sans-serif" font-size="14" lengthAdjust="spacing" textLength="74.6006" x="247.35" y="73.0234">role: string</text><ellipse cx="238.35" cy="85.7207" fill="none" rx="3" ry="3" style="stroke:#038048;stroke-width:1;"/><text fill="#000000" font-family="sans-serif" font-size="14" lengthAdjust="spacing" textLength="150.5205" x="247.35" y="89.5117">organizations: string[]</text><ellipse cx="238.35" cy="102.209" fill="none" rx="3" ry="3" style="stroke:#038048;stroke-width:1;"/><text fill="#000000" font-family="sans-serif" font-size="14" lengthAdjust="spacing" textLength="109.792" x="247.35" y="106">courses: string[]</text><ellipse cx="238.35" cy="118.6973" fill="none" rx="3" ry="3" style="stroke:#038048;stroke-width:1;"/><text fill="#000000" font-family="sans-serif" font-size="14" lengthAdjust="spacing" textLength="98.5059" x="247.35" y="122.4883">teams: string[]</text><ellipse cx="238.35" cy="135.1855" fill="none" rx="3" ry="3" style="stroke:#038048;stroke-width:1;"/><text fill="#000000" font-family="sans-serif" font-size="14" lengthAdjust="spacing" textLength="116.2656" x="247.35" y="138.9766">students: string[]</text><ellipse cx="238.35" cy="151.6738" fill="none" rx="3" ry="3" style="stroke:#038048;stroke-width:1;"/><text fill="#000000" font-family="sans-serif" font-size="14" lengthAdjust="spacing" textLength="149.6318" x="247.35" y="155.4648">memberships: string[]</text><line style="stroke:#181818;stroke-width:0.5;" x1="228.35" x2="402.8705" y1="162.418" y2="162.418"/><ellipse cx="238.35" cy="176.1621" fill="#84BE84" rx="3" ry="3" style="stroke:#038048;stroke-width:1;"/><text fill="#000000" font-family="sans-serif" font-size="14" lengthAdjust="spacing" textLength="111.8975" x="247.35" y="179.9531">fetchData(): void</text></g><!--class Home--><g id="elem_Home"><rect codeLine="16" fill="#F1F1F1" height="64.4883" id="Home" rx="2.5" ry="2.5" style="stroke:#181818;stroke-width:0.5;" width="117.2256" x="7" y="280.4"/><ellipse cx="42.4605" cy="296.4" fill="#ADD1B2" rx="11" ry="11" style="stroke:#181818;stroke-width:1;"/><path d="M44.9336,302.5431 Q44.3526,302.8419 43.7134,302.9913 Q43.0743,303.1407 42.3687,303.1407 Q39.8619,303.1407 38.542,301.4889 Q37.2222,299.837 37.2222,296.7159 Q37.2222,293.5865 38.542,291.9347 Q39.8619,290.2828 42.3687,290.2828 Q43.0743,290.2828 43.7217,290.4322 Q44.3692,290.5816 44.9336,290.8805 L44.9336,293.6031 Q44.3028,293.0221 43.7093,292.7523 Q43.1158,292.4825 42.4849,292.4825 Q41.1402,292.4825 40.4554,293.5492 Q39.7706,294.6158 39.7706,296.7159 Q39.7706,298.8077 40.4554,299.8744 Q41.1402,300.941 42.4849,300.941 Q43.1158,300.941 43.7093,300.6712 Q44.3028,300.4015 44.9336,299.8204 Z " fill="#000000"/><text fill="#000000" font-family="sans-serif" font-size="14" lengthAdjust="spacing" textLength="39.7578" x="61.0073" y="301.691">Home</text><line style="stroke:#181818;stroke-width:0.5;" x1="8" x2="123.2256" y1="312.4" y2="312.4"/><line style="stroke:#181818;stroke-width:0.5;" x1="8" x2="123.2256" y1="320.4" y2="320.4"/><ellipse cx="18" cy="334.1441" fill="#84BE84" rx="3" ry="3" style="stroke:#038048;stroke-width:1;"/><text fill="#000000" font-family="sans-serif" font-size="14" lengthAdjust="spacing" textLength="91.2256" x="27" y="337.9352">render(): void</text></g><!--class Login--><g id="elem_Login"><rect codeLine="20" fill="#F1F1F1" height="97.4648" id="Login" rx="2.5" ry="2.5" style="stroke:#181818;stroke-width:0.5;" width="145.2324" x="159" y="263.91"/><ellipse cx="208.6016" cy="279.91" fill="#ADD1B2" rx="11" ry="11" style="stroke:#181818;stroke-width:1;"/><path d="M211.0747,286.0531 Q210.4937,286.3519 209.8545,286.5013 Q209.2153,286.6507 208.5098,286.6507 Q206.0029,286.6507 204.6831,284.9989 Q203.3633,283.347 203.3633,280.2259 Q203.3633,277.0965 204.6831,275.4447 Q206.0029,273.7928 208.5098,273.7928 Q209.2153,273.7928 209.8628,273.9422 Q210.5103,274.0916 211.0747,274.3905 L211.0747,277.1131 Q210.4438,276.5321 209.8503,276.2623 Q209.2568,275.9925 208.626,275.9925 Q207.2813,275.9925 206.5964,277.0592 Q205.9116,278.1258 205.9116,280.2259 Q205.9116,282.3177 206.5964,283.3844 Q207.2813,284.451 208.626,284.451 Q209.2568,284.451 209.8503,284.1812 Q210.4438,283.9115 211.0747,283.3304 Z " fill="#000000"/><text fill="#000000" font-family="sans-serif" font-size="14" lengthAdjust="spacing" textLength="37.5293" x="229.1016" y="285.201">Login</text><line style="stroke:#181818;stroke-width:0.5;" x1="160" x2="303.2324" y1="295.91" y2="295.91"/><ellipse cx="170" cy="309.6541" fill="none" rx="3" ry="3" style="stroke:#038048;stroke-width:1;"/><text fill="#000000" font-family="sans-serif" font-size="14" lengthAdjust="spacing" textLength="85.1211" x="179" y="313.4452">email: string</text><ellipse cx="170" cy="326.1424" fill="none" rx="3" ry="3" style="stroke:#038048;stroke-width:1;"/><text fill="#000000" font-family="sans-serif" font-size="14" lengthAdjust="spacing" textLength="113.1689" x="179" y="329.9334">password: string</text><line style="stroke:#181818;stroke-width:0.5;" x1="160" x2="303.2324" y1="336.8866" y2="336.8866"/><ellipse cx="170" cy="350.6307" fill="#84BE84" rx="3" ry="3" style="stroke:#038048;stroke-width:1;"/><text fill="#000000" font-family="sans-serif" font-size="14" lengthAdjust="spacing" textLength="119.2324" x="179" y="354.4217">submit(): boolean</text></g><!--class StudentDashboard--><g id="elem_StudentDashboard"><rect codeLine="26" fill="#F1F1F1" height="80.9766" id="StudentDashboard" rx="2.5" ry="2.5" style="stroke:#181818;stroke-width:0.5;" width="208.3555" x="339.44" y="272.15"/><ellipse cx="377.223" cy="288.15" fill="#ADD1B2" rx="11" ry="11" style="stroke:#181818;stroke-width:1;"/><path d="M379.6962,294.2931 Q379.1151,294.5919 378.4759,294.7413 Q377.8368,294.8907 377.1312,294.8907 Q374.6244,294.8907 373.3046,293.2389 Q371.9847,291.587 371.9847,288.4659 Q371.9847,285.3365 373.3046,283.6847 Q374.6244,282.0328 377.1312,282.0328 Q377.8368,282.0328 378.4842,282.1822 Q379.1317,282.3316 379.6962,282.6305 L379.6962,285.3531 Q379.0653,284.7721 378.4718,284.5023 Q377.8783,284.2325 377.2474,284.2325 Q375.9027,284.2325 375.2179,285.2992 Q374.5331,286.3658 374.5331,288.4659 Q374.5331,290.5577 375.2179,291.6244 Q375.9027,292.691 377.2474,292.691 Q377.8783,292.691 378.4718,292.4212 Q379.0653,292.1515 379.6962,291.5704 Z " fill="#000000"/><text fill="#000000" font-family="sans-serif" font-size="14" lengthAdjust="spacing" textLength="125.7266" x="396.2859" y="293.441">StudentDashboard</text><line style="stroke:#181818;stroke-width:0.5;" x1="340.44" x2="546.7955" y1="304.15" y2="304.15"/><line style="stroke:#181818;stroke-width:0.5;" x1="340.44" x2="546.7955" y1="312.15" y2="312.15"/><ellipse cx="350.44" cy="325.8941" fill="#84BE84" rx="3" ry="3" style="stroke:#038048;stroke-width:1;"/><text fill="#000000" font-family="sans-serif" font-size="14" lengthAdjust="spacing" textLength="121.1396" x="359.44" y="329.6852">viewTeams(): void</text><ellipse cx="350.44" cy="342.3824" fill="#84BE84" rx="3" ry="3" style="stroke:#038048;stroke-width:1;"/><text fill="#000000" font-family="sans-serif" font-size="14" lengthAdjust="spacing" textLength="182.3555" x="359.44" y="346.1734">viewPeerEvaluations(): void</text></g><!--class InstructorDashboard--><g id="elem_InstructorDashboard"><rect codeLine="31" fill="#F1F1F1" height="80.9766" id="InstructorDashboard" rx="2.5" ry="2.5" style="stroke:#181818;stroke-width:0.5;" width="171.9727" x="582.63" y="272.15"/><ellipse cx="597.63" cy="288.15" fill="#ADD1B2" rx="11" ry="11" style="stroke:#181818;stroke-width:1;"/><path d="M600.1031,294.2931 Q599.5221,294.5919 598.8829,294.7413 Q598.2438,294.8907 597.5382,294.8907 Q595.0314,294.8907 593.7115,293.2389 Q592.3917,291.587 592.3917,288.4659 Q592.3917,285.3365 593.7115,283.6847 Q595.0314,282.0328 597.5382,282.0328 Q598.2438,282.0328 598.8912,282.1822 Q599.5387,282.3316 600.1031,282.6305 L600.1031,285.3531 Q599.4723,284.7721 598.8788,284.5023 Q598.2853,284.2325 597.6544,284.2325 Q596.3097,284.2325 595.6249,285.2992 Q594.9401,286.3658 594.9401,288.4659 Q594.9401,290.5577 595.6249,291.6244 Q596.3097,292.691 597.6544,292.691 Q598.2853,292.691 598.8788,292.4212 Q599.4723,292.1515 600.1031,291.5704 Z " fill="#000000"/><text fill="#000000" font-family="sans-serif" font-size="14" lengthAdjust="spacing" textLength="139.9727" x="611.63" y="293.441">InstructorDashboard</text><line style="stroke:#181818;stroke-width:0.5;" x1="583.63" x2="753.6027" y1="304.15" y2="304.15"/><line style="stroke:#181818;stroke-width:0.5;" x1="583.63" x2="753.6027" y1="312.15" y2="312.15"/><ellipse cx="593.63" cy="325.8941" fill="#84BE84" rx="3" ry="3" style="stroke:#038048;stroke-width:1;"/><text fill="#000000" font-family="sans-serif" font-size="14" lengthAdjust="spacing" textLength="125.5898" x="602.63" y="329.6852">createTeam(): void</text><ellipse cx="593.63" cy="342.3824" fill="#84BE84" rx="3" ry="3" style="stroke:#038048;stroke-width:1;"/><text fill="#000000" font-family="sans-serif" font-size="14" lengthAdjust="spacing" textLength="121.1396" x="602.63" y="346.1734">viewTeams(): void</text></g><!--class CreateTeams--><g id="elem_CreateTeams"><rect codeLine="36" fill="#F1F1F1" height="80.9766" id="CreateTeams" rx="2.5" ry="2.5" style="stroke:#181818;stroke-width:0.5;" width="157.1611" x="590.03" y="438.37"/><ellipse cx="621.4946" cy="454.37" fill="#ADD1B2" rx="11" ry="11" style="stroke:#181818;stroke-width:1;"/><path d="M623.9677,460.5131 Q623.3866,460.8119 622.7475,460.9613 Q622.1083,461.1107 621.4028,461.1107 Q618.8959,461.1107 617.5761,459.4589 Q616.2563,457.807 616.2563,454.6859 Q616.2563,451.5565 617.5761,449.9047 Q618.8959,448.2528 621.4028,448.2528 Q622.1083,448.2528 622.7558,448.4022 Q623.4032,448.5516 623.9677,448.8505 L623.9677,451.5731 Q623.3368,450.9921 622.7433,450.7223 Q622.1498,450.4525 621.519,450.4525 Q620.1742,450.4525 619.4894,451.5192 Q618.8046,452.5858 618.8046,454.6859 Q618.8046,456.7777 619.4894,457.8444 Q620.1742,458.911 621.519,458.911 Q622.1498,458.911 622.7433,458.6412 Q623.3368,458.3715 623.9677,457.7904 Z " fill="#000000"/><text fill="#000000" font-family="sans-serif" font-size="14" lengthAdjust="spacing" textLength="88.5732" x="639.1533" y="459.661">CreateTeams</text><line style="stroke:#181818;stroke-width:0.5;" x1="591.03" x2="746.1911" y1="470.37" y2="470.37"/><line style="stroke:#181818;stroke-width:0.5;" x1="591.03" x2="746.1911" y1="478.37" y2="478.37"/><ellipse cx="601.03" cy="492.1141" fill="#84BE84" rx="3" ry="3" style="stroke:#038048;stroke-width:1;"/><text fill="#000000" font-family="sans-serif" font-size="14" lengthAdjust="spacing" textLength="125.5898" x="610.03" y="495.9052">createTeam(): void</text><ellipse cx="601.03" cy="508.6024" fill="#84BE84" rx="3" ry="3" style="stroke:#038048;stroke-width:1;"/><text fill="#000000" font-family="sans-serif" font-size="14" lengthAdjust="spacing" textLength="131.1611" x="610.03" y="512.3934">addStudents(): void</text></g><!--class TeamList--><g id="elem_TeamList"><rect codeLine="41" fill="#F1F1F1" height="64.4883" id="TeamList" rx="2.5" ry="2.5" style="stroke:#181818;stroke-width:0.5;" width="137.7266" x="374.75" y="446.62"/><ellipse cx="409.7245" cy="462.62" fill="#ADD1B2" rx="11" ry="11" style="stroke:#181818;stroke-width:1;"/><path d="M412.1976,468.7631 Q411.6166,469.0619 410.9774,469.2113 Q410.3382,469.3607 409.6327,469.3607 Q407.1258,469.3607 405.806,467.7089 Q404.4862,466.057 404.4862,462.9359 Q404.4862,459.8065 405.806,458.1547 Q407.1258,456.5028 409.6327,456.5028 Q410.3382,456.5028 410.9857,456.6522 Q411.6332,456.8016 412.1976,457.1005 L412.1976,459.8231 Q411.5667,459.2421 410.9732,458.9723 Q410.3797,458.7025 409.7489,458.7025 Q408.4042,458.7025 407.7193,459.7692 Q407.0345,460.8358 407.0345,462.9359 Q407.0345,465.0277 407.7193,466.0944 Q408.4042,467.161 409.7489,467.161 Q410.3797,467.161 410.9732,466.8912 Q411.5667,466.6215 412.1976,466.0404 Z " fill="#000000"/><text fill="#000000" font-family="sans-serif" font-size="14" lengthAdjust="spacing" textLength="61.3389" x="428.1632" y="467.911">TeamList</text><line style="stroke:#181818;stroke-width:0.5;" x1="375.75" x2="511.4766" y1="478.62" y2="478.62"/><line style="stroke:#181818;stroke-width:0.5;" x1="375.75" x2="511.4766" y1="486.62" y2="486.62"/><ellipse cx="385.75" cy="500.3641" fill="#84BE84" rx="3" ry="3" style="stroke:#038048;stroke-width:1;"/><text fill="#000000" font-family="sans-serif" font-size="14" lengthAdjust="spacing" textLength="111.7266" x="394.75" y="504.1552">listTeams(): void</text></g><!--class TeamDetails--><g id="elem_TeamDetails"><rect codeLine="45" fill="#F1F1F1" height="64.4883" id="TeamDetails" rx="2.5" ry="2.5" style="stroke:#181818;stroke-width:0.5;" width="149.0332" x="589.1" y="64.71"/><ellipse cx="618.9926" cy="80.71" fill="#ADD1B2" rx="11" ry="11" style="stroke:#181818;stroke-width:1;"/><path d="M621.4658,86.8531 Q620.8847,87.1519 620.2456,87.3013 Q619.6064,87.4507 618.9008,87.4507 Q616.394,87.4507 615.0742,85.7989 Q613.7543,84.147 613.7543,81.0259 Q613.7543,77.8965 615.0742,76.2447 Q616.394,74.5928 618.9008,74.5928 Q619.6064,74.5928 620.2539,74.7422 Q620.9013,74.8916 621.4658,75.1905 L621.4658,77.9131 Q620.8349,77.3321 620.2414,77.0623 Q619.6479,76.7925 619.017,76.7925 Q617.6723,76.7925 616.9875,77.8592 Q616.3027,78.9258 616.3027,81.0259 Q616.3027,83.1177 616.9875,84.1844 Q617.6723,85.251 619.017,85.251 Q619.6479,85.251 620.2414,84.9812 Q620.8349,84.7115 621.4658,84.1304 Z " fill="#000000"/><text fill="#000000" font-family="sans-serif" font-size="14" lengthAdjust="spacing" textLength="83.9385" x="636.3021" y="86.001">TeamDetails</text><line style="stroke:#181818;stroke-width:0.5;" x1="590.1" x2="737.1332" y1="96.71" y2="96.71"/><line style="stroke:#181818;stroke-width:0.5;" x1="590.1" x2="737.1332" y1="104.71" y2="104.71"/><ellipse cx="600.1" cy="118.4541" fill="#84BE84" rx="3" ry="3" style="stroke:#038048;stroke-width:1;"/><text fill="#000000" font-family="sans-serif" font-size="14" lengthAdjust="spacing" textLength="123.0332" x="609.1" y="122.2452">viewDetails(): void</text></g><!--class TeammatesList--><g id="elem_TeammatesList"><rect codeLine="49" fill="#F1F1F1" height="64.4883" id="TeammatesList" rx="2.5" ry="2.5" style="stroke:#181818;stroke-width:0.5;" width="180.9775" x="794.12" y="64.71"/><ellipse cx="830.1188" cy="80.71" fill="#ADD1B2" rx="11" ry="11" style="stroke:#181818;stroke-width:1;"/><path d="M832.592,86.8531 Q832.0109,87.1519 831.3718,87.3013 Q830.7326,87.4507 830.027,87.4507 Q827.5202,87.4507 826.2004,85.7989 Q824.8805,84.147 824.8805,81.0259 Q824.8805,77.8965 826.2004,76.2447 Q827.5202,74.5928 830.027,74.5928 Q830.7326,74.5928 831.3801,74.7422 Q832.0275,74.8916 832.592,75.1905 L832.592,77.9131 Q831.9611,77.3321 831.3676,77.0623 Q830.7741,76.7925 830.1432,76.7925 Q828.7985,76.7925 828.1137,77.8592 Q827.4289,78.9258 827.4289,81.0259 Q827.4289,83.1177 828.1137,84.1844 Q828.7985,85.251 830.1432,85.251 Q830.7741,85.251 831.3676,84.9812 Q831.9611,84.7115 832.592,84.1304 Z " fill="#000000"/><text fill="#000000" font-family="sans-serif" font-size="14" lengthAdjust="spacing" textLength="102.3135" x="848.7852" y="86.001">TeammatesList</text><line style="stroke:#181818;stroke-width:0.5;" x1="795.12" x2="974.0975" y1="96.71" y2="96.71"/><line style="stroke:#181818;stroke-width:0.5;" x1="795.12" x2="974.0975" y1="104.71" y2="104.71"/><ellipse cx="805.12" cy="118.4541" fill="#84BE84" rx="3" ry="3" style="stroke:#038048;stroke-width:1;"/><text fill="#000000" font-family="sans-serif" font-size="14" lengthAdjust="spacing" textLength="154.9775" x="814.12" y="122.2452">viewTeammates(): void</text></g><!--class PeerEvaluationForm--><g id="elem_PeerEvaluationForm"><rect codeLine="53" fill="#F1F1F1" height="64.4883" id="PeerEvaluationForm" rx="2.5" ry="2.5" style="stroke:#181818;stroke-width:0.5;" width="189.2627" x="789.98" y="280.4"/><ellipse cx="815.6398" cy="296.4" fill="#ADD1B2" rx="11" ry="11" style="stroke:#181818;stroke-width:1;"/><path d="M818.113,302.5431 Q817.5319,302.8419 816.8927,302.9913 Q816.2536,303.1407 815.548,303.1407 Q813.0412,303.1407 811.7214,301.4889 Q810.4015,299.837 810.4015,296.7159 Q810.4015,293.5865 811.7214,291.9347 Q813.0412,290.2828 815.548,290.2828 Q816.2536,290.2828 816.901,290.4322 Q817.5485,290.5816 818.113,290.8805 L818.113,293.6031 Q817.4821,293.0221 816.8886,292.7523 Q816.2951,292.4825 815.6642,292.4825 Q814.3195,292.4825 813.6347,293.5492 Q812.9499,294.6158 812.9499,296.7159 Q812.9499,298.8077 813.6347,299.8744 Q814.3195,300.941 815.6642,300.941 Q816.2951,300.941 816.8886,300.6712 Q817.4821,300.4015 818.113,299.8204 Z " fill="#000000"/><text fill="#000000" font-family="sans-serif" font-size="14" lengthAdjust="spacing" textLength="133.5742" x="832.0087" y="301.691">PeerEvaluationForm</text><line style="stroke:#181818;stroke-width:0.5;" x1="790.98" x2="978.2427" y1="312.4" y2="312.4"/><line style="stroke:#181818;stroke-width:0.5;" x1="790.98" x2="978.2427" y1="320.4" y2="320.4"/><ellipse cx="800.98" cy="334.1441" fill="#84BE84" rx="3" ry="3" style="stroke:#038048;stroke-width:1;"/><text fill="#000000" font-family="sans-serif" font-size="14" lengthAdjust="spacing" textLength="163.2627" x="809.98" y="337.9352">submitEvaluation(): void</text></g><!--link App to Home--><g id="link_App_Home"><path codeLine="58" d="M227.12,173.59 C184.28,210.21 139.7309,248.2915 107.0209,276.2515 " fill="none" id="App-to-Home" style="stroke:#181818;stroke-width:1;"/><polygon fill="#181818" points="102.46,280.15,111.9003,277.3428,106.2607,276.9012,106.7022,271.2616,102.46,280.15" style="stroke:#181818;stroke-width:1;"/><text fill="#000000" font-family="sans-serif" font-size="13" lengthAdjust="spacing" textLength="52.6602" x="176.64" y="230.4784">Displays</text></g><!--link App to Login--><g id="link_App_Login"><path codeLine="59" d="M280.48,187.34 C270.18,213.53 261.515,235.5759 252.655,258.1159 " fill="none" id="App-to-Login" style="stroke:#181818;stroke-width:1;"/><polygon fill="#181818" points="250.46,263.7,257.4752,256.7872,252.2892,259.0466,250.0298,253.8605,250.46,263.7" style="stroke:#181818;stroke-width:1;"/><text fill="#000000" font-family="sans-serif" font-size="13" lengthAdjust="spacing" textLength="80.1201" x="269.58" y="230.4784">Login screen</text></g><!--link App to StudentDashboard--><g id="link_App_StudentDashboard"><path codeLine="60" d="M369.15,187.34 C386.76,216.73 402.3668,242.7928 416.6168,266.5828 " fill="none" id="App-to-StudentDashboard" style="stroke:#181818;stroke-width:1;"/><polygon fill="#181818" points="419.7,271.73,418.5068,261.9537,417.1307,267.4406,411.6438,266.0646,419.7,271.73" style="stroke:#181818;stroke-width:1;"/><text fill="#000000" font-family="sans-serif" font-size="13" lengthAdjust="spacing" textLength="130.4634" x="395.84" y="230.4784">Student's Dashboard</text></g><!--link App to InstructorDashboard--><g id="link_App_InstructorDashboard"><path codeLine="61" d="M404.35,143.1 C444.72,164.42 492.73,190.86 534.61,216.91 C561.83,233.84 586.1399,250.6616 610.2999,268.1516 " fill="none" id="App-to-InstructorDashboard" style="stroke:#181818;stroke-width:1;"/><polygon fill="#181818" points="615.16,271.67,610.2154,263.1523,611.1099,268.738,605.5242,269.6325,615.16,271.67" style="stroke:#181818;stroke-width:1;"/><text fill="#000000" font-family="sans-serif" font-size="13" lengthAdjust="spacing" textLength="143.6919" x="558.2" y="230.4784">Instructor's Dashboard</text></g><!--link StudentDashboard to TeamList--><g id="link_StudentDashboard_TeamList"><path codeLine="62" d="M443.61,353.39 C443.61,381.87 443.61,413.71 443.61,440.16 " fill="none" id="StudentDashboard-to-TeamList" style="stroke:#181818;stroke-width:1;"/><polygon fill="#181818" points="443.61,446.16,447.61,437.16,443.61,441.16,439.61,437.16,443.61,446.16" style="stroke:#181818;stroke-width:1;"/><text fill="#000000" font-family="sans-serif" font-size="13" lengthAdjust="spacing" textLength="75.0356" x="444.61" y="404.9384">View Teams</text></g><!--link InstructorDashboard to CreateTeams--><g id="link_InstructorDashboard_CreateTeams"><path codeLine="63" d="M668.61,353.39 C668.61,379.02 668.61,406.24 668.61,431.91 " fill="none" id="InstructorDashboard-to-CreateTeams" style="stroke:#181818;stroke-width:1;"/><polygon fill="#181818" points="668.61,437.91,672.61,428.91,668.61,432.91,664.61,428.91,668.61,437.91" style="stroke:#181818;stroke-width:1;"/><text fill="#000000" font-family="sans-serif" font-size="13" lengthAdjust="spacing" textLength="86.3599" x="669.61" y="404.9384">Create Teams</text></g><!--link TeammatesList to PeerEvaluationForm--><g id="link_TeammatesList_PeerEvaluationForm"><path codeLine="64" d="M884.61,129.49 C884.61,169.89 884.61,233.52 884.61,273.98 " fill="none" id="TeammatesList-to-PeerEvaluationForm" style="stroke:#181818;stroke-width:1;"/><polygon fill="#181818" points="884.61,279.98,888.61,270.98,884.61,274.98,880.61,270.98,884.61,279.98" style="stroke:#181818;stroke-width:1;"/><text fill="#000000" font-family="sans-serif" font-size="13" lengthAdjust="spacing" textLength="150.4839" x="885.61" y="230.4784">Submit Peer Evaluations</text></g><!--SRC=[XLDDJyCm3BttLqIx38Gu877Q0GbH9f1sG0nnGHpSrcmHJLB5wIQ6-EyupVf52lIKFlkzsCyElKjTWGKbyXA8baQxjJoWkBXCahb8yKrggJVY4I5t8ZUgCXgr8m4K24X9qXp4TLM9pqJmTuOAPBaGv2np0sHDYMF4s0reUG0dZQOszF8QWhcfBMl_X1s2Ya1oTU5h-eahL1bQsieg2hsXoxSfE3WvNOYTaKNorRPnPnIsVLZK1TeuPsKsKl_HRCL9UsEBCKfrfgJpQfbXDq3tWklGGWgqpGpOejNUITm_-Pwx6Zhu0T7Uxg2iWu5naVUQBwzpPsmacri4XruurXrVrwdTT1JwJmMAujZFX8vFNqbohKZ9vr-kz72AZjsbeHz7Q3fVSKKqr6zRQW8nP-pYqbZL4iEq-jYGE-VtK0RV_NQ93DqUKG_UH-9Vm_dvLLYdXPYbageIFcZMHS8ISIWSYEr4tOUZbU3C8pOdqS4zOMhUpEdXCItIznhTT9ZupCur0DSyfUtpXrl1bF3RaiRpyEaJRlkk6gURe1Xiz2pv1W00]--></g></svg>