<svg xmlns="http://www.w3.org/2000/svg" xmlns:xlink="http://www.w3.org/1999/xlink" contentStyleType="text/css" height="668px" preserveAspectRatio="none" style="width:4749px;height:668px;background:#FFFFFF;" version="1.1" viewBox="0 0 4749 668" width="4749px" zoomAndPan="magnify"><defs/><g><!--cluster React Components--><g id="cluster_React Components"><path d="M8.5,6 L144.2227,6 A3.75,3.75 0 0 1 146.7227,8.5 L153.7227,28.4883 L1987.5,28.4883 A2.5,2.5 0 0 1 1990,30.9883 L1990,251.24 A2.5,2.5 0 0 1 1987.5,253.74 L8.5,253.74 A2.5,2.5 0 0 1 6,251.24 L6,8.5 A2.5,2.5 0 0 1 8.5,6 " fill="none" style="stroke:#000000;stroke-width:1.5;"/><line style="stroke:#000000;stroke-width:1.5;" x1="6" x2="153.7227" y1="28.4883" y2="28.4883"/><text fill="#000000" font-family="sans-serif" font-size="14" font-weight="bold" lengthAdjust="spacing" textLength="134.7227" x="10" y="21.5352">React Components</text></g><!--cluster State Management--><g id="cluster_State Management"><path d="M2016.5,150.49 L2150.3428,150.49 A3.75,3.75 0 0 1 2152.8428,152.99 L2159.8428,172.9783 L3432.5,172.9783 A2.5,2.5 0 0 1 3435,175.4783 L3435,256.99 A2.5,2.5 0 0 1 3432.5,259.49 L2016.5,259.49 A2.5,2.5 0 0 1 2014,256.99 L2014,152.99 A2.5,2.5 0 0 1 2016.5,150.49 " fill="none" style="stroke:#000000;stroke-width:1.5;"/><line style="stroke:#000000;stroke-width:1.5;" x1="2014" x2="2159.8428" y1="172.9783" y2="172.9783"/><text fill="#000000" font-family="sans-serif" font-size="14" font-weight="bold" lengthAdjust="spacing" textLength="132.8428" x="2018" y="166.0252">State Management</text></g><!--cluster Backend Communication--><g id="cluster_Backend Communication"><path d="M3461.5,156.25 L3640.2002,156.25 A3.75,3.75 0 0 1 3642.7002,158.75 L3649.7002,178.7383 L4152.5,178.7383 A2.5,2.5 0 0 1 4155,181.2383 L4155,366.48 A2.5,2.5 0 0 1 4152.5,368.98 L3461.5,368.98 A2.5,2.5 0 0 1 3459,366.48 L3459,158.75 A2.5,2.5 0 0 1 3461.5,156.25 " fill="none" style="stroke:#000000;stroke-width:1.5;"/><line style="stroke:#000000;stroke-width:1.5;" x1="3459" x2="3649.7002" y1="178.7383" y2="178.7383"/><text fill="#000000" font-family="sans-serif" font-size="14" font-weight="bold" lengthAdjust="spacing" textLength="177.7002" x="3463" y="171.7852">Backend Communication</text></g><!--cluster API Endpoints--><g id="cluster_API Endpoints"><path d="M3042.5,417.98 L3144.084,417.98 A3.75,3.75 0 0 1 3146.584,420.48 L3153.584,440.4683 L4707.5,440.4683 A2.5,2.5 0 0 1 4710,442.9683 L4710,659.48 A2.5,2.5 0 0 1 4707.5,661.98 L3042.5,661.98 A2.5,2.5 0 0 1 3040,659.48 L3040,420.48 A2.5,2.5 0 0 1 3042.5,417.98 " fill="none" style="stroke:#000000;stroke-width:1.5;"/><line style="stroke:#000000;stroke-width:1.5;" x1="3040" x2="3153.584" y1="440.4683" y2="440.4683"/><text fill="#000000" font-family="sans-serif" font-size="14" font-weight="bold" lengthAdjust="spacing" textLength="100.584" x="3044" y="433.5152">API Endpoints</text></g><!--entity App--><g id="elem_App"><rect fill="#F1F1F1" height="46.4883" rx="2.5" ry="2.5" style="stroke:#181818;stroke-width:0.5;" width="67.2822" x="1906.36" y="41"/><rect fill="#F1F1F1" height="10" style="stroke:#181818;stroke-width:0.5;" width="15" x="1953.6422" y="46"/><rect fill="#F1F1F1" height="2" style="stroke:#181818;stroke-width:0.5;" width="4" x="1951.6422" y="48"/><rect fill="#F1F1F1" height="2" style="stroke:#181818;stroke-width:0.5;" width="4" x="1951.6422" y="52"/><text fill="#000000" font-family="sans-serif" font-size="14" lengthAdjust="spacing" textLength="27.2822" x="1921.36" y="74.5352">App</text></g><!--entity Header--><g id="elem_Header"><rect fill="#F1F1F1" height="46.4883" rx="2.5" ry="2.5" style="stroke:#181818;stroke-width:0.5;" width="88.1592" x="46.92" y="41"/><rect fill="#F1F1F1" height="10" style="stroke:#181818;stroke-width:0.5;" width="15" x="115.0792" y="46"/><rect fill="#F1F1F1" height="2" style="stroke:#181818;stroke-width:0.5;" width="4" x="113.0792" y="48"/><rect fill="#F1F1F1" height="2" style="stroke:#181818;stroke-width:0.5;" width="4" x="113.0792" y="52"/><text fill="#000000" font-family="sans-serif" font-size="14" lengthAdjust="spacing" textLength="48.1592" x="61.92" y="74.5352">Header</text></g><!--entity Footer--><g id="elem_Footer"><rect fill="#F1F1F1" height="46.4883" rx="2.5" ry="2.5" style="stroke:#181818;stroke-width:0.5;" width="83.4697" x="170.27" y="41"/><rect fill="#F1F1F1" height="10" style="stroke:#181818;stroke-width:0.5;" width="15" x="233.7397" y="46"/><rect fill="#F1F1F1" height="2" style="stroke:#181818;stroke-width:0.5;" width="4" x="231.7397" y="48"/><rect fill="#F1F1F1" height="2" style="stroke:#181818;stroke-width:0.5;" width="4" x="231.7397" y="52"/><text fill="#000000" font-family="sans-serif" font-size="14" lengthAdjust="spacing" textLength="43.4697" x="185.27" y="74.5352">Footer</text></g><!--entity BrowserRouter--><g id="elem_BrowserRouter"><rect fill="#F1F1F1" height="46.4883" rx="2.5" ry="2.5" style="stroke:#181818;stroke-width:0.5;" width="138.7383" x="21.63" y="191.25"/><rect fill="#F1F1F1" height="10" style="stroke:#181818;stroke-width:0.5;" width="15" x="140.3683" y="196.25"/><rect fill="#F1F1F1" height="2" style="stroke:#181818;stroke-width:0.5;" width="4" x="138.3683" y="198.25"/><rect fill="#F1F1F1" height="2" style="stroke:#181818;stroke-width:0.5;" width="4" x="138.3683" y="202.25"/><text fill="#000000" font-family="sans-serif" font-size="14" lengthAdjust="spacing" textLength="98.7383" x="36.63" y="224.7852">BrowserRouter</text></g><!--entity Routes--><g id="elem_Routes"><rect fill="#F1F1F1" height="46.4883" rx="2.5" ry="2.5" style="stroke:#181818;stroke-width:0.5;" width="86.3135" x="1014.84" y="41"/><rect fill="#F1F1F1" height="10" style="stroke:#181818;stroke-width:0.5;" width="15" x="1081.1535" y="46"/><rect fill="#F1F1F1" height="2" style="stroke:#181818;stroke-width:0.5;" width="4" x="1079.1535" y="48"/><rect fill="#F1F1F1" height="2" style="stroke:#181818;stroke-width:0.5;" width="4" x="1079.1535" y="52"/><text fill="#000000" font-family="sans-serif" font-size="14" lengthAdjust="spacing" textLength="46.3135" x="1029.84" y="74.5352">Routes</text></g><!--entity Home--><g id="elem_Home"><rect fill="#F1F1F1" height="46.4883" rx="2.5" ry="2.5" style="stroke:#181818;stroke-width:0.5;" width="79.7578" x="1894.12" y="191.25"/><rect fill="#F1F1F1" height="10" style="stroke:#181818;stroke-width:0.5;" width="15" x="1953.8778" y="196.25"/><rect fill="#F1F1F1" height="2" style="stroke:#181818;stroke-width:0.5;" width="4" x="1951.8778" y="198.25"/><rect fill="#F1F1F1" height="2" style="stroke:#181818;stroke-width:0.5;" width="4" x="1951.8778" y="202.25"/><text fill="#000000" font-family="sans-serif" font-size="14" lengthAdjust="spacing" textLength="39.7578" x="1909.12" y="224.7852">Home</text></g><!--entity Login--><g id="elem_Login"><rect fill="#F1F1F1" height="46.4883" rx="2.5" ry="2.5" style="stroke:#181818;stroke-width:0.5;" width="77.5293" x="195.24" y="191.25"/><rect fill="#F1F1F1" height="10" style="stroke:#181818;stroke-width:0.5;" width="15" x="252.7693" y="196.25"/><rect fill="#F1F1F1" height="2" style="stroke:#181818;stroke-width:0.5;" width="4" x="250.7693" y="198.25"/><rect fill="#F1F1F1" height="2" style="stroke:#181818;stroke-width:0.5;" width="4" x="250.7693" y="202.25"/><text fill="#000000" font-family="sans-serif" font-size="14" lengthAdjust="spacing" textLength="37.5293" x="210.24" y="224.7852">Login</text></g><!--entity StudentDashboard--><g id="elem_StudentDashboard"><rect fill="#F1F1F1" height="46.4883" rx="2.5" ry="2.5" style="stroke:#181818;stroke-width:0.5;" width="165.7266" x="308.14" y="191.25"/><rect fill="#F1F1F1" height="10" style="stroke:#181818;stroke-width:0.5;" width="15" x="453.8666" y="196.25"/><rect fill="#F1F1F1" height="2" style="stroke:#181818;stroke-width:0.5;" width="4" x="451.8666" y="198.25"/><rect fill="#F1F1F1" height="2" style="stroke:#181818;stroke-width:0.5;" width="4" x="451.8666" y="202.25"/><text fill="#000000" font-family="sans-serif" font-size="14" lengthAdjust="spacing" textLength="125.7266" x="323.14" y="224.7852">StudentDashboard</text></g><!--entity InstructorDashboard--><g id="elem_InstructorDashboard"><rect fill="#F1F1F1" height="46.4883" rx="2.5" ry="2.5" style="stroke:#181818;stroke-width:0.5;" width="179.9727" x="509.01" y="191.25"/><rect fill="#F1F1F1" height="10" style="stroke:#181818;stroke-width:0.5;" width="15" x="668.9827" y="196.25"/><rect fill="#F1F1F1" height="2" style="stroke:#181818;stroke-width:0.5;" width="4" x="666.9827" y="198.25"/><rect fill="#F1F1F1" height="2" style="stroke:#181818;stroke-width:0.5;" width="4" x="666.9827" y="202.25"/><text fill="#000000" font-family="sans-serif" font-size="14" lengthAdjust="spacing" textLength="139.9727" x="524.01" y="224.7852">InstructorDashboard</text></g><!--entity CreateTeams--><g id="elem_CreateTeams"><rect fill="#F1F1F1" height="46.4883" rx="2.5" ry="2.5" style="stroke:#181818;stroke-width:0.5;" width="128.5732" x="723.71" y="191.25"/><rect fill="#F1F1F1" height="10" style="stroke:#181818;stroke-width:0.5;" width="15" x="832.2832" y="196.25"/><rect fill="#F1F1F1" height="2" style="stroke:#181818;stroke-width:0.5;" width="4" x="830.2832" y="198.25"/><rect fill="#F1F1F1" height="2" style="stroke:#181818;stroke-width:0.5;" width="4" x="830.2832" y="202.25"/><text fill="#000000" font-family="sans-serif" font-size="14" lengthAdjust="spacing" textLength="88.5732" x="738.71" y="224.7852">CreateTeams</text></g><!--entity Teams--><g id="elem_Teams"><rect fill="#F1F1F1" height="46.4883" rx="2.5" ry="2.5" style="stroke:#181818;stroke-width:0.5;" width="84.5908" x="887.7" y="191.25"/><rect fill="#F1F1F1" height="10" style="stroke:#181818;stroke-width:0.5;" width="15" x="952.2908" y="196.25"/><rect fill="#F1F1F1" height="2" style="stroke:#181818;stroke-width:0.5;" width="4" x="950.2908" y="198.25"/><rect fill="#F1F1F1" height="2" style="stroke:#181818;stroke-width:0.5;" width="4" x="950.2908" y="202.25"/><text fill="#000000" font-family="sans-serif" font-size="14" lengthAdjust="spacing" textLength="44.5908" x="902.7" y="224.7852">Teams</text></g><!--entity TeamList--><g id="elem_TeamList"><rect fill="#F1F1F1" height="46.4883" rx="2.5" ry="2.5" style="stroke:#181818;stroke-width:0.5;" width="101.3389" x="1007.33" y="191.25"/><rect fill="#F1F1F1" height="10" style="stroke:#181818;stroke-width:0.5;" width="15" x="1088.6689" y="196.25"/><rect fill="#F1F1F1" height="2" style="stroke:#181818;stroke-width:0.5;" width="4" x="1086.6689" y="198.25"/><rect fill="#F1F1F1" height="2" style="stroke:#181818;stroke-width:0.5;" width="4" x="1086.6689" y="202.25"/><text fill="#000000" font-family="sans-serif" font-size="14" lengthAdjust="spacing" textLength="61.3389" x="1022.33" y="224.7852">TeamList</text></g><!--entity TeamDetails--><g id="elem_TeamDetails"><rect fill="#F1F1F1" height="46.4883" rx="2.5" ry="2.5" style="stroke:#181818;stroke-width:0.5;" width="123.9385" x="1144.03" y="191.25"/><rect fill="#F1F1F1" height="10" style="stroke:#181818;stroke-width:0.5;" width="15" x="1247.9685" y="196.25"/><rect fill="#F1F1F1" height="2" style="stroke:#181818;stroke-width:0.5;" width="4" x="1245.9685" y="198.25"/><rect fill="#F1F1F1" height="2" style="stroke:#181818;stroke-width:0.5;" width="4" x="1245.9685" y="202.25"/><text fill="#000000" font-family="sans-serif" font-size="14" lengthAdjust="spacing" textLength="83.9385" x="1159.03" y="224.7852">TeamDetails</text></g><!--entity TeammatesList--><g id="elem_TeammatesList"><rect fill="#F1F1F1" height="46.4883" rx="2.5" ry="2.5" style="stroke:#181818;stroke-width:0.5;" width="142.3135" x="1302.84" y="191.25"/><rect fill="#F1F1F1" height="10" style="stroke:#181818;stroke-width:0.5;" width="15" x="1425.1535" y="196.25"/><rect fill="#F1F1F1" height="2" style="stroke:#181818;stroke-width:0.5;" width="4" x="1423.1535" y="198.25"/><rect fill="#F1F1F1" height="2" style="stroke:#181818;stroke-width:0.5;" width="4" x="1423.1535" y="202.25"/><text fill="#000000" font-family="sans-serif" font-size="14" lengthAdjust="spacing" textLength="102.3135" x="1317.84" y="224.7852">TeammatesList</text></g><!--entity PeerEvaluationForm--><g id="elem_PeerEvaluationForm"><rect fill="#F1F1F1" height="46.4883" rx="2.5" ry="2.5" style="stroke:#181818;stroke-width:0.5;" width="173.5742" x="1480.21" y="191.25"/><rect fill="#F1F1F1" height="10" style="stroke:#181818;stroke-width:0.5;" width="15" x="1633.7842" y="196.25"/><rect fill="#F1F1F1" height="2" style="stroke:#181818;stroke-width:0.5;" width="4" x="1631.7842" y="198.25"/><rect fill="#F1F1F1" height="2" style="stroke:#181818;stroke-width:0.5;" width="4" x="1631.7842" y="202.25"/><text fill="#000000" font-family="sans-serif" font-size="14" lengthAdjust="spacing" textLength="133.5742" x="1495.21" y="224.7852">PeerEvaluationForm</text></g><!--entity PeerEvaluationIntro--><g id="elem_PeerEvaluationIntro"><rect fill="#F1F1F1" height="46.4883" rx="2.5" ry="2.5" style="stroke:#181818;stroke-width:0.5;" width="170.9561" x="1688.52" y="191.25"/><rect fill="#F1F1F1" height="10" style="stroke:#181818;stroke-width:0.5;" width="15" x="1839.4761" y="196.25"/><rect fill="#F1F1F1" height="2" style="stroke:#181818;stroke-width:0.5;" width="4" x="1837.4761" y="198.25"/><rect fill="#F1F1F1" height="2" style="stroke:#181818;stroke-width:0.5;" width="4" x="1837.4761" y="202.25"/><text fill="#000000" font-family="sans-serif" font-size="14" lengthAdjust="spacing" textLength="130.9561" x="1703.52" y="224.7852">PeerEvaluationIntro</text></g><!--entity loggedIn (useState)--><g id="elem_loggedIn (useState)"><ellipse cx="2103" cy="214.49" fill="#F1F1F1" rx="8" ry="8" style="stroke:#181818;stroke-width:0.5;"/><text fill="#000000" font-family="sans-serif" font-size="14" lengthAdjust="spacing" textLength="130.1426" x="2037.9287" y="245.0252">loggedIn (useState)</text></g><!--entity email (useState)--><g id="elem_email (useState)"><ellipse cx="2272" cy="214.49" fill="#F1F1F1" rx="8" ry="8" style="stroke:#181818;stroke-width:0.5;"/><text fill="#000000" font-family="sans-serif" font-size="14" lengthAdjust="spacing" textLength="107.3994" x="2218.3003" y="245.0252">email (useState)</text></g><!--entity role (useState)--><g id="elem_role (useState)"><ellipse cx="2424" cy="214.49" fill="#F1F1F1" rx="8" ry="8" style="stroke:#181818;stroke-width:0.5;"/><text fill="#000000" font-family="sans-serif" font-size="14" lengthAdjust="spacing" textLength="96.8789" x="2375.5605" y="245.0252">role (useState)</text></g><!--entity organizations (useState)--><g id="elem_organizations (useState)"><ellipse cx="2604" cy="214.49" fill="#F1F1F1" rx="8" ry="8" style="stroke:#181818;stroke-width:0.5;"/><text fill="#000000" font-family="sans-serif" font-size="14" lengthAdjust="spacing" textLength="163.6934" x="2522.1533" y="245.0252">organizations (useState)</text></g><!--entity courses (useState)--><g id="elem_courses (useState)"><ellipse cx="2797" cy="214.49" fill="#F1F1F1" rx="8" ry="8" style="stroke:#181818;stroke-width:0.5;"/><text fill="#000000" font-family="sans-serif" font-size="14" lengthAdjust="spacing" textLength="122.9648" x="2735.5176" y="245.0252">courses (useState)</text></g><!--entity teams (useState)--><g id="elem_teams (useState)"><ellipse cx="2964" cy="214.49" fill="#F1F1F1" rx="8" ry="8" style="stroke:#181818;stroke-width:0.5;"/><text fill="#000000" font-family="sans-serif" font-size="14" lengthAdjust="spacing" textLength="111.6787" x="2908.1606" y="245.0252">teams (useState)</text></g><!--entity students (useState)--><g id="elem_students (useState)"><ellipse cx="3134" cy="214.49" fill="#F1F1F1" rx="8" ry="8" style="stroke:#181818;stroke-width:0.5;"/><text fill="#000000" font-family="sans-serif" font-size="14" lengthAdjust="spacing" textLength="129.4385" x="3069.2808" y="245.0252">students (useState)</text></g><!--entity memberships (useState)--><g id="elem_memberships (useState)"><ellipse cx="3330" cy="214.49" fill="#F1F1F1" rx="8" ry="8" style="stroke:#181818;stroke-width:0.5;"/><text fill="#000000" font-family="sans-serif" font-size="14" lengthAdjust="spacing" textLength="162.8047" x="3248.5977" y="245.0252">memberships (useState)</text></g><!--entity fetchData--><g id="elem_fetchData"><rect fill="#F1F1F1" height="46.4883" rx="2.5" ry="2.5" style="stroke:#181818;stroke-width:0.5;" width="105.2285" x="3633.39" y="191.25"/><rect fill="#F1F1F1" height="10" style="stroke:#181818;stroke-width:0.5;" width="15" x="3718.6185" y="196.25"/><rect fill="#F1F1F1" height="2" style="stroke:#181818;stroke-width:0.5;" width="4" x="3716.6185" y="198.25"/><rect fill="#F1F1F1" height="2" style="stroke:#181818;stroke-width:0.5;" width="4" x="3716.6185" y="202.25"/><text fill="#000000" font-family="sans-serif" font-size="14" lengthAdjust="spacing" textLength="65.2285" x="3648.39" y="224.7852">fetchData</text></g><!--entity Courses API--><g id="elem_Courses API"><rect fill="#F1F1F1" height="46.4883" rx="2.5" ry="2.5" style="stroke:#181818;stroke-width:0.5;" width="120.6367" x="3474.68" y="306.49"/><rect fill="#F1F1F1" height="10" style="stroke:#181818;stroke-width:0.5;" width="15" x="3575.3167" y="311.49"/><rect fill="#F1F1F1" height="2" style="stroke:#181818;stroke-width:0.5;" width="4" x="3573.3167" y="313.49"/><rect fill="#F1F1F1" height="2" style="stroke:#181818;stroke-width:0.5;" width="4" x="3573.3167" y="317.49"/><text fill="#000000" font-family="sans-serif" font-size="14" lengthAdjust="spacing" textLength="80.6367" x="3489.68" y="340.0252">Courses API</text></g><!--entity Teams API--><g id="elem_Teams API"><rect fill="#F1F1F1" height="46.4883" rx="2.5" ry="2.5" style="stroke:#181818;stroke-width:0.5;" width="110.4512" x="3630.77" y="306.49"/><rect fill="#F1F1F1" height="10" style="stroke:#181818;stroke-width:0.5;" width="15" x="3721.2212" y="311.49"/><rect fill="#F1F1F1" height="2" style="stroke:#181818;stroke-width:0.5;" width="4" x="3719.2212" y="313.49"/><rect fill="#F1F1F1" height="2" style="stroke:#181818;stroke-width:0.5;" width="4" x="3719.2212" y="317.49"/><text fill="#000000" font-family="sans-serif" font-size="14" lengthAdjust="spacing" textLength="70.4512" x="3645.77" y="340.0252">Teams API</text></g><!--entity Peer Evaluations API--><g id="elem_Peer Evaluations API"><rect fill="#F1F1F1" height="46.4883" rx="2.5" ry="2.5" style="stroke:#181818;stroke-width:0.5;" width="176.0967" x="3775.95" y="306.49"/><rect fill="#F1F1F1" height="10" style="stroke:#181818;stroke-width:0.5;" width="15" x="3932.0467" y="311.49"/><rect fill="#F1F1F1" height="2" style="stroke:#181818;stroke-width:0.5;" width="4" x="3930.0467" y="313.49"/><rect fill="#F1F1F1" height="2" style="stroke:#181818;stroke-width:0.5;" width="4" x="3930.0467" y="317.49"/><text fill="#000000" font-family="sans-serif" font-size="14" lengthAdjust="spacing" textLength="136.0967" x="3790.95" y="340.0252">Peer Evaluations API</text></g><!--entity Verify Token API--><g id="elem_Verify Token API"><rect fill="#F1F1F1" height="46.4883" rx="2.5" ry="2.5" style="stroke:#181818;stroke-width:0.5;" width="151.6035" x="3987.2" y="306.49"/><rect fill="#F1F1F1" height="10" style="stroke:#181818;stroke-width:0.5;" width="15" x="4118.8035" y="311.49"/><rect fill="#F1F1F1" height="2" style="stroke:#181818;stroke-width:0.5;" width="4" x="4116.8035" y="313.49"/><rect fill="#F1F1F1" height="2" style="stroke:#181818;stroke-width:0.5;" width="4" x="4116.8035" y="317.49"/><text fill="#000000" font-family="sans-serif" font-size="14" lengthAdjust="spacing" textLength="111.6035" x="4002.2" y="340.0252">Verify Token API</text></g><!--entity /teams/:id--><g id="elem_/teams/:id"><ellipse cx="3100" cy="481.98" fill="#F1F1F1" rx="8" ry="8" style="stroke:#181818;stroke-width:0.5;"/><text fill="#000000" font-family="sans-serif" font-size="14" lengthAdjust="spacing" textLength="72.9463" x="3063.5269" y="512.5152">/teams/:id</text></g><!--entity /teams/:id/students--><g id="elem_/teams/:id/students"><ellipse cx="3256" cy="481.98" fill="#F1F1F1" rx="8" ry="8" style="stroke:#181818;stroke-width:0.5;"/><text fill="#000000" font-family="sans-serif" font-size="14" lengthAdjust="spacing" textLength="139.0225" x="3186.4888" y="512.5152">/teams/:id/students</text></g><!--entity /teams/:id/students/:studentId--><g id="elem_/teams/:id/students/:studentId"><ellipse cx="3483" cy="481.98" fill="#F1F1F1" rx="8" ry="8" style="stroke:#181818;stroke-width:0.5;"/><text fill="#000000" font-family="sans-serif" font-size="14" lengthAdjust="spacing" textLength="215.2363" x="3375.3818" y="512.5152">/teams/:id/students/:studentId</text></g><!--entity /teams/:id/size--><g id="elem_/teams/:id/size"><ellipse cx="3694" cy="481.98" fill="#F1F1F1" rx="8" ry="8" style="stroke:#181818;stroke-width:0.5;"/><text fill="#000000" font-family="sans-serif" font-size="14" lengthAdjust="spacing" textLength="107.2969" x="3640.3516" y="512.5152">/teams/:id/size</text></g><!--entity /submit-evaluation--><g id="elem_/submit-evaluation"><ellipse cx="3864" cy="481.98" fill="#F1F1F1" rx="8" ry="8" style="stroke:#181818;stroke-width:0.5;"/><text fill="#000000" font-family="sans-serif" font-size="14" lengthAdjust="spacing" textLength="132.248" x="3797.876" y="512.5152">/submit-evaluation</text></g><!--entity /peer-evaluations/check--><g id="elem_/peer-evaluations/check"><ellipse cx="4065" cy="481.98" fill="#F1F1F1" rx="8" ry="8" style="stroke:#181818;stroke-width:0.5;"/><text fill="#000000" font-family="sans-serif" font-size="14" lengthAdjust="spacing" textLength="168.8887" x="3980.5557" y="512.5152">/peer-evaluations/check</text></g><!--entity /peer-evaluations/feedback--><g id="elem_/peer-evaluations/feedback"><ellipse cx="4295" cy="481.98" fill="#F1F1F1" rx="8" ry="8" style="stroke:#181818;stroke-width:0.5;"/><text fill="#000000" font-family="sans-serif" font-size="14" lengthAdjust="spacing" textLength="191.3311" x="4199.3345" y="512.5152">/peer-evaluations/feedback</text></g><!--entity Rosters API--><g id="elem_Rosters API"><rect fill="#F1F1F1" height="46.4883" rx="2.5" ry="2.5" style="stroke:#181818;stroke-width:0.5;" width="116.3506" x="4432.82" y="458.74"/><rect fill="#F1F1F1" height="10" style="stroke:#181818;stroke-width:0.5;" width="15" x="4529.1706" y="463.74"/><rect fill="#F1F1F1" height="2" style="stroke:#181818;stroke-width:0.5;" width="4" x="4527.1706" y="465.74"/><rect fill="#F1F1F1" height="2" style="stroke:#181818;stroke-width:0.5;" width="4" x="4527.1706" y="469.74"/><text fill="#000000" font-family="sans-serif" font-size="14" lengthAdjust="spacing" textLength="76.3506" x="4447.82" y="492.2752">Rosters API</text></g><!--entity /rosters--><g id="elem_/rosters"><ellipse cx="4388" cy="616.98" fill="#F1F1F1" rx="8" ry="8" style="stroke:#181818;stroke-width:0.5;"/><text fill="#000000" font-family="sans-serif" font-size="14" lengthAdjust="spacing" textLength="54.708" x="4360.646" y="647.5152">/rosters</text></g><!--entity Scores API--><g id="elem_Scores API"><rect fill="#F1F1F1" height="46.4883" rx="2.5" ry="2.5" style="stroke:#181818;stroke-width:0.5;" width="109.8359" x="4584.08" y="458.74"/><rect fill="#F1F1F1" height="10" style="stroke:#181818;stroke-width:0.5;" width="15" x="4673.9159" y="463.74"/><rect fill="#F1F1F1" height="2" style="stroke:#181818;stroke-width:0.5;" width="4" x="4671.9159" y="465.74"/><rect fill="#F1F1F1" height="2" style="stroke:#181818;stroke-width:0.5;" width="4" x="4671.9159" y="469.74"/><text fill="#000000" font-family="sans-serif" font-size="14" lengthAdjust="spacing" textLength="69.8359" x="4599.08" y="492.2752">Scores API</text></g><!--entity /scores--><g id="elem_/scores"><ellipse cx="4553" cy="616.98" fill="#F1F1F1" rx="8" ry="8" style="stroke:#181818;stroke-width:0.5;"/><text fill="#000000" font-family="sans-serif" font-size="14" lengthAdjust="spacing" textLength="50.9141" x="4527.543" y="647.5152">/scores</text></g><!--link App to loggedIn (useState)--><g id="link_App_loggedIn (useState)"><path d="M1964.76,87.76 C2001.98,121.62 2066.1309,179.9634 2090.0609,201.7234 " fill="none" id="App-to-loggedIn (useState)" style="stroke:#181818;stroke-width:1;"/><polygon fill="#181818" points="2094.5,205.76,2090.5324,196.7457,2090.8007,202.3962,2085.1502,202.6645,2094.5,205.76" style="stroke:#181818;stroke-width:1;"/></g><!--link App to email (useState)--><g id="link_App_email (useState)"><path d="M1973.95,70.64 C2024.53,79.72 2121.47,101.27 2194,142.49 C2224.57,159.86 2249.2703,186.5516 2261.6503,201.0916 " fill="none" id="App-to-email (useState)" style="stroke:#181818;stroke-width:1;"/><polygon fill="#181818" points="2265.54,205.66,2262.751,196.2143,2262.2986,201.853,2256.6598,201.4006,2265.54,205.66" style="stroke:#181818;stroke-width:1;"/></g><!--link App to role (useState)--><g id="link_App_role (useState)"><path d="M1974.08,65.15 C2047.32,66.28 2223.4,76.28 2351,142.49 C2381.44,158.29 2404.1201,186.0828 2415.0401,200.9628 " fill="none" id="App-to-role (useState)" style="stroke:#181818;stroke-width:1;"/><polygon fill="#181818" points="2418.59,205.8,2416.49,196.1776,2415.6318,201.769,2410.0404,200.9108,2418.59,205.8" style="stroke:#181818;stroke-width:1;"/></g><!--link App to organizations (useState)--><g id="link_App_organizations (useState)"><path d="M1974.08,64.51 C2063.43,63.72 2310.46,68.88 2498,142.49 C2537.79,158.11 2573.2993,186.5964 2590.5993,201.6164 " fill="none" id="App-to-organizations (useState)" style="stroke:#181818;stroke-width:1;"/><polygon fill="#181818" points="2595.13,205.55,2590.9564,196.6292,2591.3544,202.272,2585.7116,202.6701,2595.13,205.55" style="stroke:#181818;stroke-width:1;"/></g><!--link App to courses (useState)--><g id="link_App_courses (useState)"><path d="M1973.8,66.01 C2104.3,69.37 2574.72,85.26 2711,142.49 C2745.63,157.04 2773.2279,185.778 2786.4679,201.038 " fill="none" id="App-to-courses (useState)" style="stroke:#181818;stroke-width:1;"/><polygon fill="#181818" points="2790.4,205.57,2787.5232,196.1507,2787.1233,201.7934,2781.4806,201.3934,2790.4,205.57" style="stroke:#181818;stroke-width:1;"/></g><!--link App to teams (useState)--><g id="link_App_teams (useState)"><path d="M1974.12,67.09 C2078.91,72.86 2405.34,91.79 2675,117.49 C2768.13,126.37 2798.67,104.14 2884,142.49 C2916.86,157.26 2942.1179,185.73 2954.2379,200.92 " fill="none" id="App-to-teams (useState)" style="stroke:#181818;stroke-width:1;"/><polygon fill="#181818" points="2957.98,205.61,2955.4935,196.0802,2954.8615,201.7016,2949.2401,201.0697,2957.98,205.61" style="stroke:#181818;stroke-width:1;"/></g><!--link App to students (useState)--><g id="link_App_students (useState)"><path d="M1973.88,66.84 C2089.13,72.35 2476.56,91.72 2796,117.49 C2906.86,126.44 2941.99,100.54 3045,142.49 C3080.51,156.95 3109.2883,185.8173 3123.0983,201.1073 " fill="none" id="App-to-students (useState)" style="stroke:#181818;stroke-width:1;"/><polygon fill="#181818" points="3127.12,205.56,3124.0559,196.1999,3123.7686,201.8494,3118.1191,201.5621,3127.12,205.56" style="stroke:#181818;stroke-width:1;"/></g><!--link App to memberships (useState)--><g id="link_App_memberships (useState)"><path d="M1973.96,66.61 C2100.74,71.8 2558.38,91.32 2935,117.49 C3063.61,126.43 3102.38,99.71 3224,142.49 C3264.54,156.75 3300.0591,186.1464 3317.0391,201.4964 " fill="none" id="App-to-memberships (useState)" style="stroke:#181818;stroke-width:1;"/><polygon fill="#181818" points="3321.49,205.52,3317.4961,196.5173,3317.7809,202.167,3312.1312,202.4518,3321.49,205.52" style="stroke:#181818;stroke-width:1;"/></g><!--link App to fetchData--><g id="link_App_fetchData"><path d="M1974.02,65.87 C2168.46,69.62 3140.64,90.69 3435,142.49 C3504.8,154.78 3577.3636,176.6955 3627.6636,193.3355 " fill="none" id="App-to-fetchData" style="stroke:#181818;stroke-width:1;"/><polygon fill="#181818" points="3633.36,195.22,3626.0717,188.5957,3628.613,193.6496,3623.5591,196.1909,3633.36,195.22" style="stroke:#181818;stroke-width:1;"/></g><!--link fetchData to Courses API--><g id="link_fetchData_Courses API"><path d="M3655.81,238.14 C3629.47,257.89 3596.26,282.79 3569.94,302.53 " fill="none" id="fetchData-to-Courses API" style="stroke:#181818;stroke-width:1;"/><polygon fill="#181818" points="3565.14,306.13,3574.74,303.93,3569.14,303.13,3569.94,297.53,3565.14,306.13" style="stroke:#181818;stroke-width:1;"/></g><!--link fetchData to Teams API--><g id="link_fetchData_Teams API"><path d="M3686,238.14 C3686,257.89 3686,280.39 3686,300.13 " fill="none" id="fetchData-to-Teams API" style="stroke:#181818;stroke-width:1;"/><polygon fill="#181818" points="3686,306.13,3690,297.13,3686,301.13,3682,297.13,3686,306.13" style="stroke:#181818;stroke-width:1;"/></g><!--link fetchData to Peer Evaluations API--><g id="link_fetchData_Peer Evaluations API"><path d="M3721.59,238.14 C3752.64,257.89 3792.3776,283.1695 3823.4076,302.9095 " fill="none" id="fetchData-to-Peer Evaluations API" style="stroke:#181818;stroke-width:1;"/><polygon fill="#181818" points="3828.47,306.13,3823.0234,297.9243,3824.2513,303.4462,3818.7293,304.6742,3828.47,306.13" style="stroke:#181818;stroke-width:1;"/></g><!--link fetchData to Verify Token API--><g id="link_fetchData_Verify Token API"><path d="M3738.82,231.36 C3803.56,250.81 3907.9937,282.1738 3981.6937,304.3138 " fill="none" id="fetchData-to-Verify Token API" style="stroke:#181818;stroke-width:1;"/><polygon fill="#181818" points="3987.44,306.04,3979.9714,299.6198,3982.6514,304.6015,3977.6697,307.2815,3987.44,306.04" style="stroke:#181818;stroke-width:1;"/></g><!--link Teams API to /teams/:id--><g id="link_Teams API_/teams/:id"><path d="M3658.31,353.34 C3645.36,362.53 3629.24,372.11 3613,376.98 C3589.53,384.02 3193.82,373.82 3172,384.98 C3134.16,404.33 3113.1805,448.2462 3105.2905,467.5462 " fill="none" id="Teams API-to-/teams/:id" style="stroke:#181818;stroke-width:1;"/><polygon fill="#181818" points="3103.02,473.1,3110.1282,466.2829,3104.912,468.4718,3102.7231,463.2556,3103.02,473.1" style="stroke:#181818;stroke-width:1;"/><text fill="#000000" font-family="sans-serif" font-size="13" lengthAdjust="spacing" textLength="145.4946" x="3173" y="398.5484">Get specific team by ID</text></g><!--link Teams API to /teams/:id/students--><g id="link_Teams API_/teams/:id/students"><path d="M3658.28,353.25 C3645.33,362.41 3629.21,372 3613,376.98 C3585.69,385.37 3382.34,373.91 3356,384.98 C3310.74,404.01 3277.453,448.6876 3264.443,468.0776 " fill="none" id="Teams API-to-/teams/:id/students" style="stroke:#181818;stroke-width:1;"/><polygon fill="#181818" points="3261.1,473.06,3269.4361,467.8151,3263.8858,468.908,3262.7929,463.3577,3261.1,473.06" style="stroke:#181818;stroke-width:1;"/><text fill="#000000" font-family="sans-serif" font-size="13" lengthAdjust="spacing" textLength="129.854" x="3357" y="398.5484">Add student to team</text></g><!--link Teams API to /teams/:id/students/:studentId--><g id="link_Teams API_/teams/:id/students/:studentId"><path d="M3657.48,353.39 C3644.63,362.35 3628.81,371.74 3613,376.98 C3590.79,384.35 3525.96,369.98 3508,384.98 C3481.17,407.4 3480.7995,448.6414 3481.9495,467.2314 " fill="none" id="Teams API-to-/teams/:id/students/:studentId" style="stroke:#181818;stroke-width:1;"/><polygon fill="#181818" points="3482.32,473.22,3485.7567,463.9902,3482.0113,468.2295,3477.7719,464.4841,3482.32,473.22" style="stroke:#181818;stroke-width:1;"/><text fill="#000000" font-family="sans-serif" font-size="13" lengthAdjust="spacing" textLength="171.4502" x="3509" y="398.5484">Remove student from team</text></g><!--link Teams API to /teams/:id/size--><g id="link_Teams API_/teams/:id/size"><path d="M3687.2,353.23 C3689.02,387.45 3692.081,444.9485 3693.261,467.1085 " fill="none" id="Teams API-to-/teams/:id/size" style="stroke:#181818;stroke-width:1;"/><polygon fill="#181818" points="3693.58,473.1,3697.0958,463.9,3693.3141,468.1071,3689.1071,464.3254,3693.58,473.1" style="stroke:#181818;stroke-width:1;"/><text fill="#000000" font-family="sans-serif" font-size="13" lengthAdjust="spacing" textLength="109.3828" x="3690.76" y="398.5484">Update team size</text></g><!--link Peer Evaluations API to /submit-evaluation--><g id="link_Peer Evaluations API_/submit-evaluation"><path d="M3864,353.23 C3864,387.45 3864,444.94 3864,467.1 " fill="none" id="Peer Evaluations API-to-/submit-evaluation" style="stroke:#181818;stroke-width:1;"/><polygon fill="#181818" points="3864,473.1,3868,464.1,3864,468.1,3860,464.1,3864,473.1" style="stroke:#181818;stroke-width:1;"/><text fill="#000000" font-family="sans-serif" font-size="13" lengthAdjust="spacing" textLength="145.0503" x="3865" y="398.5484">Submit peer evaluation</text></g><!--link Peer Evaluations API to /peer-evaluations/check--><g id="link_Peer Evaluations API_/peer-evaluations/check"><path d="M3909.24,353.44 C3927.7,361.92 3949.49,370.94 3970,376.98 C3991.17,383.22 4001.34,371.75 4019,384.98 C4049.03,407.47 4059.2794,448.7581 4062.6794,467.3281 " fill="none" id="Peer Evaluations API-to-/peer-evaluations/check" style="stroke:#181818;stroke-width:1;"/><polygon fill="#181818" points="4063.76,473.23,4066.0737,463.6568,4062.8595,468.3118,4058.2045,465.0975,4063.76,473.23" style="stroke:#181818;stroke-width:1;"/><text fill="#000000" font-family="sans-serif" font-size="13" lengthAdjust="spacing" textLength="161.3574" x="4035.98" y="398.5484">Check if evaluation exists</text></g><!--link Peer Evaluations API to /peer-evaluations/feedback--><g id="link_Peer Evaluations API_/peer-evaluations/feedback"><path d="M3906.07,353.46 C3925.04,362.54 3948.07,372.01 3970,376.98 C3995.59,382.77 4182.14,374.08 4206,384.98 C4248.17,404.25 4276.6711,448.5617 4287.7211,467.8817 " fill="none" id="Peer Evaluations API-to-/peer-evaluations/feedback" style="stroke:#181818;stroke-width:1;"/><polygon fill="#181818" points="4290.7,473.09,4289.7039,463.2916,4288.2176,468.7498,4282.7595,467.2635,4290.7,473.09" style="stroke:#181818;stroke-width:1;"/><text fill="#000000" font-family="sans-serif" font-size="13" lengthAdjust="spacing" textLength="118.2124" x="4233.83" y="398.5484">Get team feedback</text></g><!--link Rosters API to /rosters--><g id="link_Rosters API_/rosters"><path d="M4473.53,505.54 C4450,535.93 4412.9838,583.7263 4397.7038,603.4563 " fill="none" id="Rosters API-to-/rosters" style="stroke:#181818;stroke-width:1;"/><polygon fill="#181818" points="4394.03,608.2,4402.7032,603.5336,4397.0915,604.2469,4396.3782,598.6352,4394.03,608.2" style="stroke:#181818;stroke-width:1;"/><text fill="#000000" font-family="sans-serif" font-size="13" lengthAdjust="spacing" textLength="123.043" x="4446.67" y="554.5484">Create a new roster</text></g><!--link Scores API to /scores--><g id="link_Scores API_/scores"><path d="M4624.1,505.52 C4617.05,516.24 4608.51,529.25 4600.92,540.98 C4585.13,565.36 4569.9038,589.3133 4561.2138,603.0133 " fill="none" id="Scores API-to-/scores" style="stroke:#181818;stroke-width:1;"/><polygon fill="#181818" points="4558,608.08,4566.1985,602.6225,4560.6782,603.8578,4559.443,598.3374,4558,608.08" style="stroke:#181818;stroke-width:1;"/><text fill="#000000" font-family="sans-serif" font-size="13" lengthAdjust="spacing" textLength="139.3818" x="4601.92" y="554.5484">Store score for a team</text></g><!--link Routes to Home--><g id="link_Routes_Home"><path d="M1101.54,64.95 C1250.96,64.59 1741.2,69.16 1877,142.49 C1897.03,153.31 1909.4915,169.264 1919.2515,185.664 " fill="none" id="Routes-to-Home" style="stroke:#181818;stroke-width:1;"/><polygon fill="#181818" points="1922.32,190.82,1921.1547,181.0403,1919.7629,186.5233,1914.28,185.1316,1922.32,190.82" style="stroke:#181818;stroke-width:1;"/></g><!--link Routes to Login--><g id="link_Routes_Login"><path d="M1014.48,65.22 C871.31,65.8 416.89,73.19 291,142.49 C271.06,153.47 258.601,169.4114 248.811,185.7714 " fill="none" id="Routes-to-Login" style="stroke:#181818;stroke-width:1;"/><polygon fill="#181818" points="245.73,190.92,253.7838,185.2511,248.2975,186.6295,246.9191,181.1432,245.73,190.92" style="stroke:#181818;stroke-width:1;"/></g><!--link Routes to StudentDashboard--><g id="link_Routes_StudentDashboard"><path d="M1014.37,64.31 C917.02,63.66 676.16,70.18 492,142.49 C463.47,153.69 439.8954,170.6823 420.5854,186.8923 " fill="none" id="Routes-to-StudentDashboard" style="stroke:#181818;stroke-width:1;"/><polygon fill="#181818" points="415.99,190.75,425.455,188.0271,419.8195,187.5352,420.3114,181.8998,415.99,190.75" style="stroke:#181818;stroke-width:1;"/></g><!--link Routes to InstructorDashboard--><g id="link_Routes_InstructorDashboard"><path d="M1014.45,69.58 C946.36,77.48 811.56,97.75 706,142.49 C677.06,154.76 652.3122,171.4132 631.6322,187.1732 " fill="none" id="Routes-to-InstructorDashboard" style="stroke:#181818;stroke-width:1;"/><polygon fill="#181818" points="626.86,190.81,636.4428,188.5362,630.8368,187.7793,631.5937,182.1733,626.86,190.81" style="stroke:#181818;stroke-width:1;"/></g><!--link Routes to CreateTeams--><g id="link_Routes_CreateTeams"><path d="M1014.67,78.57 C975.29,91.7 916.43,113.92 870,142.49 C847.87,156.11 830.0836,171.5095 814.4136,186.6595 " fill="none" id="Routes-to-CreateTeams" style="stroke:#181818;stroke-width:1;"/><polygon fill="#181818" points="810.1,190.83,819.3507,187.45,813.6947,187.3546,813.7901,181.6986,810.1,190.83" style="stroke:#181818;stroke-width:1;"/></g><!--link Routes to Teams--><g id="link_Routes_Teams"><path d="M1037.94,87.79 C1024.34,103.14 1005.99,123.96 990,142.49 C976.09,158.62 964.4295,172.406 952.6595,186.416 " fill="none" id="Routes-to-Teams" style="stroke:#181818;stroke-width:1;"/><polygon fill="#181818" points="948.8,191.01,957.6518,186.692,952.0162,187.1817,951.5265,181.5461,948.8,191.01" style="stroke:#181818;stroke-width:1;"/></g><!--link Routes to TeamList--><g id="link_Routes_TeamList"><path d="M1058,87.76 C1058,115.63 1058,156.8 1058,184.76 " fill="none" id="Routes-to-TeamList" style="stroke:#181818;stroke-width:1;"/><polygon fill="#181818" points="1058,190.76,1062,181.76,1058,185.76,1054,181.76,1058,190.76" style="stroke:#181818;stroke-width:1;"/></g><!--link Routes to TeamDetails--><g id="link_Routes_TeamDetails"><path d="M1080.48,87.76 C1108.3,115.63 1151.1612,158.5536 1179.0712,186.5136 " fill="none" id="Routes-to-TeamDetails" style="stroke:#181818;stroke-width:1;"/><polygon fill="#181818" points="1183.31,190.76,1179.7827,181.5645,1179.7776,187.2213,1174.1208,187.2162,1183.31,190.76" style="stroke:#181818;stroke-width:1;"/><text fill="#000000" font-family="sans-serif" font-size="13" lengthAdjust="spacing" textLength="147.2021" x="1124.14" y="131.0584">if userRole = instructor</text></g><!--link Routes to TeammatesList--><g id="link_Routes_TeammatesList"><path d="M1101.49,68.28 C1148.24,73.12 1223.44,85.59 1280,117.49 C1312.51,135.83 1337.4604,163.9699 1354.3304,186.0799 " fill="none" id="Routes-to-TeammatesList" style="stroke:#181818;stroke-width:1;"/><polygon fill="#181818" points="1357.97,190.85,1355.6907,181.2685,1354.937,186.8749,1349.3306,186.1213,1357.97,190.85" style="stroke:#181818;stroke-width:1;"/><text fill="#000000" font-family="sans-serif" font-size="13" lengthAdjust="spacing" textLength="133.5864" x="1305.07" y="131.0584">if userRole = student</text></g><!--link Routes to PeerEvaluationForm--><g id="link_Routes_PeerEvaluationForm"><path d="M1101.63,68.16 C1189.7,74.52 1385.52,91.2 1447,117.49 C1486.74,134.49 1520.0392,164.1359 1542.2192,186.7559 " fill="none" id="Routes-to-PeerEvaluationForm" style="stroke:#181818;stroke-width:1;"/><polygon fill="#181818" points="1546.42,191.04,1542.9749,181.8133,1542.9194,187.4699,1537.2628,187.4144,1546.42,191.04" style="stroke:#181818;stroke-width:1;"/></g><!--link Routes to PeerEvaluationIntro--><g id="link_Routes_PeerEvaluationIntro"><path d="M1101.37,68.03 C1223.15,76.27 1566.14,102.49 1671,142.49 C1700.22,153.64 1724.5344,170.8885 1744.2644,187.1885 " fill="none" id="Routes-to-PeerEvaluationIntro" style="stroke:#181818;stroke-width:1;"/><polygon fill="#181818" points="1748.89,191.01,1744.4992,182.194,1745.0353,187.8254,1739.4039,188.3615,1748.89,191.01" style="stroke:#181818;stroke-width:1;"/></g><!--SRC=[dLLDRzim3BtdLn0-ROSYzm0Ra2RjPg03YgJRfUX1aMb7Y2KQajmk7VRVfoydTfAwnNoYoCTdYfIUp4weXcaceMPxQYtKM5gm15fKMmk5qCYj83MPD8plM8MGhP1n2mkI3IbKrcJmPmBkUvmtpLEqlYChKAV5BP4zBAurlHZKA_UhWoyiJ9TA4fDvHvLGoLxRjd0_MpAptH3JHNBdobZTSalwDBBGo2m-89CTywbz9upjBPTecQZx0Ea8J0zrZwXldbdTCj-HMzBoOY1NLjFJv6-lPMlhgE07KsubtJO6BOEhgw-GrLHLMEGAFhK60_vpTef1wIeS0sYgSInEkc9Al8OopHYGKwiDZaAiR-SOmCIHZM8aoWrginND4DPlthKpK1N-nCbM2HwgF-_WOucMRvVCiZILuph65sbFy_ly3KGu8IDnFsSu3deC-WkrAFVmGAxq2EjloJdWHXKDYVxzEVu-DcSQMZoTYIA36MJVq89fa8jISF0XsEmXNsRl9K-xGGIMUL50SlXhxb4VPvZEafN7abOewHaFVAKc-L56yOg1ucTJ-BiHzXESnojrrkh4OjgD5FOA3z50j0vUQ7nYB_G-dS_eaPaftoBV1Sw5jq2KFKB0tquHpF_mbeZ5XYLgFysmwOEt4qFZb750fAChLXHa3HWeV84OI8bhJXg7VGgUs1oda6vEtW4bQPSVn-GEPIU_yTn6-HtwaWuFdUU2F8nVLEOXP23Hmz2RpYZ7v_vElVrctRpQyCOuCVm2ub18TY7lgF7dcUbOdwPTUWR64Eaz-0S0]--></g></svg>