<svg xmlns="http://www.w3.org/2000/svg" xmlns:xlink="http://www.w3.org/1999/xlink" contentStyleType="text/css" height="859px" preserveAspectRatio="none" style="width:7043px;height:859px;background:#FFFFFF;" version="1.1" viewBox="0 0 7043 859" width="7043px" zoomAndPan="magnify"><defs/><g><!--cluster React Components--><g id="cluster_React Components"><path d="M8.5,7.9844 L259.6992,7.9844 A3.75,3.75 0 0 1 262.1992,10.4844 L269.1992,44.6055 L2765.5,44.6055 A2.5,2.5 0 0 1 2768,47.1055 L2768,325.8844 A2.5,2.5 0 0 1 2765.5,328.3844 L8.5,328.3844 A2.5,2.5 0 0 1 6,325.8844 L6,10.4844 A2.5,2.5 0 0 1 8.5,7.9844 " fill="none" style="stroke:#000000;stroke-width:1.5;"/><line style="stroke:#000000;stroke-width:1.5;" x1="6" x2="269.1992" y1="44.6055" y2="44.6055"/><text fill="#000000" font-family="sans-serif" font-size="26" font-weight="bold" lengthAdjust="spacing" textLength="250.1992" x="10" y="35.1211">React Components</text></g><!--cluster State Management--><g id="cluster_State Management"><path d="M2794.5,191.2444 L3042.208,191.2444 A3.75,3.75 0 0 1 3044.708,193.7444 L3051.708,227.8655 L5090.5,227.8655 A2.5,2.5 0 0 1 5093,230.3655 L5093,339.7444 A2.5,2.5 0 0 1 5090.5,342.2444 L2794.5,342.2444 A2.5,2.5 0 0 1 2792,339.7444 L2792,193.7444 A2.5,2.5 0 0 1 2794.5,191.2444 " fill="none" style="stroke:#000000;stroke-width:1.5;"/><line style="stroke:#000000;stroke-width:1.5;" x1="2792" x2="3051.708" y1="227.8655" y2="227.8655"/><text fill="#000000" font-family="sans-serif" font-size="26" font-weight="bold" lengthAdjust="spacing" textLength="246.708" x="2796" y="218.3811">State Management</text></g><!--cluster Backend Communication--><g id="cluster_Backend Communication"><path d="M5119.5,205.1144 L5450.5146,205.1144 A3.75,3.75 0 0 1 5453.0146,207.6144 L5460.0146,241.7355 L6095.5,241.7355 A2.5,2.5 0 0 1 6098,244.2355 L6098,461.0144 A2.5,2.5 0 0 1 6095.5,463.5144 L5119.5,463.5144 A2.5,2.5 0 0 1 5117,461.0144 L5117,207.6144 A2.5,2.5 0 0 1 5119.5,205.1144 " fill="none" style="stroke:#000000;stroke-width:1.5;"/><line style="stroke:#000000;stroke-width:1.5;" x1="5117" x2="5460.0146" y1="241.7355" y2="241.7355"/><text fill="#000000" font-family="sans-serif" font-size="26" font-weight="bold" lengthAdjust="spacing" textLength="330.0146" x="5121" y="232.2511">Backend Communication</text></g><!--cluster API Endpoints--><g id="cluster_API Endpoints"><path d="M4354.5,525.5144 L4542.2988,525.5144 A3.75,3.75 0 0 1 4544.7988,528.0144 L4551.7988,562.1355 L7001.5,562.1355 A2.5,2.5 0 0 1 7004,564.6355 L7004,850.0144 A2.5,2.5 0 0 1 7001.5,852.5144 L4354.5,852.5144 A2.5,2.5 0 0 1 4352,850.0144 L4352,528.0144 A2.5,2.5 0 0 1 4354.5,525.5144 " fill="none" style="stroke:#000000;stroke-width:1.5;"/><line style="stroke:#000000;stroke-width:1.5;" x1="4352" x2="4551.7988" y1="562.1355" y2="562.1355"/><text fill="#000000" font-family="sans-serif" font-size="26" font-weight="bold" lengthAdjust="spacing" textLength="186.7988" x="4356" y="552.6511">API Endpoints</text></g><!--entity App--><g id="elem_App"><rect fill="#F1F1F1" height="58.2656" rx="2.5" ry="2.5" style="stroke:#181818;stroke-width:0.5;" width="86.7695" x="2665.62" y="56.9844"/><rect fill="#F1F1F1" height="10" style="stroke:#181818;stroke-width:0.5;" width="15" x="2732.3895" y="61.9844"/><rect fill="#F1F1F1" height="2" style="stroke:#181818;stroke-width:0.5;" width="4" x="2730.3895" y="63.9844"/><rect fill="#F1F1F1" height="2" style="stroke:#181818;stroke-width:0.5;" width="4" x="2730.3895" y="67.9844"/><text fill="#000000" font-family="sans-serif" font-size="24" lengthAdjust="spacing" textLength="46.7695" x="2680.62" y="100.1875">App</text></g><!--entity Header--><g id="elem_Header"><rect fill="#F1F1F1" height="58.2656" rx="2.5" ry="2.5" style="stroke:#181818;stroke-width:0.5;" width="122.5586" x="65.72" y="56.9844"/><rect fill="#F1F1F1" height="10" style="stroke:#181818;stroke-width:0.5;" width="15" x="168.2786" y="61.9844"/><rect fill="#F1F1F1" height="2" style="stroke:#181818;stroke-width:0.5;" width="4" x="166.2786" y="63.9844"/><rect fill="#F1F1F1" height="2" style="stroke:#181818;stroke-width:0.5;" width="4" x="166.2786" y="67.9844"/><text fill="#000000" font-family="sans-serif" font-size="24" lengthAdjust="spacing" textLength="82.5586" x="80.72" y="100.1875">Header</text></g><!--entity Footer--><g id="elem_Footer"><rect fill="#F1F1F1" height="58.2656" rx="2.5" ry="2.5" style="stroke:#181818;stroke-width:0.5;" width="114.5195" x="223.74" y="56.9844"/><rect fill="#F1F1F1" height="10" style="stroke:#181818;stroke-width:0.5;" width="15" x="318.2595" y="61.9844"/><rect fill="#F1F1F1" height="2" style="stroke:#181818;stroke-width:0.5;" width="4" x="316.2595" y="63.9844"/><rect fill="#F1F1F1" height="2" style="stroke:#181818;stroke-width:0.5;" width="4" x="316.2595" y="67.9844"/><text fill="#000000" font-family="sans-serif" font-size="24" lengthAdjust="spacing" textLength="74.5195" x="238.74" y="100.1875">Footer</text></g><!--entity BrowserRouter--><g id="elem_BrowserRouter"><rect fill="#F1F1F1" height="58.2656" rx="2.5" ry="2.5" style="stroke:#181818;stroke-width:0.5;" width="209.2656" x="22.37" y="254.1144"/><rect fill="#F1F1F1" height="10" style="stroke:#181818;stroke-width:0.5;" width="15" x="211.6356" y="259.1144"/><rect fill="#F1F1F1" height="2" style="stroke:#181818;stroke-width:0.5;" width="4" x="209.6356" y="261.1144"/><rect fill="#F1F1F1" height="2" style="stroke:#181818;stroke-width:0.5;" width="4" x="209.6356" y="265.1144"/><text fill="#000000" font-family="sans-serif" font-size="24" lengthAdjust="spacing" textLength="169.2656" x="37.37" y="297.3175">BrowserRouter</text></g><!--entity Routes--><g id="elem_Routes"><rect fill="#F1F1F1" height="58.2656" rx="2.5" ry="2.5" style="stroke:#181818;stroke-width:0.5;" width="119.3945" x="1403.3" y="56.9844"/><rect fill="#F1F1F1" height="10" style="stroke:#181818;stroke-width:0.5;" width="15" x="1502.6945" y="61.9844"/><rect fill="#F1F1F1" height="2" style="stroke:#181818;stroke-width:0.5;" width="4" x="1500.6945" y="63.9844"/><rect fill="#F1F1F1" height="2" style="stroke:#181818;stroke-width:0.5;" width="4" x="1500.6945" y="67.9844"/><text fill="#000000" font-family="sans-serif" font-size="24" lengthAdjust="spacing" textLength="79.3945" x="1418.3" y="100.1875">Routes</text></g><!--entity Home--><g id="elem_Home"><rect fill="#F1F1F1" height="58.2656" rx="2.5" ry="2.5" style="stroke:#181818;stroke-width:0.5;" width="108.1563" x="2643.92" y="254.1144"/><rect fill="#F1F1F1" height="10" style="stroke:#181818;stroke-width:0.5;" width="15" x="2732.0763" y="259.1144"/><rect fill="#F1F1F1" height="2" style="stroke:#181818;stroke-width:0.5;" width="4" x="2730.0763" y="261.1144"/><rect fill="#F1F1F1" height="2" style="stroke:#181818;stroke-width:0.5;" width="4" x="2730.0763" y="265.1144"/><text fill="#000000" font-family="sans-serif" font-size="24" lengthAdjust="spacing" textLength="68.1563" x="2658.92" y="297.3175">Home</text></g><!--entity Login--><g id="elem_Login"><rect fill="#F1F1F1" height="58.2656" rx="2.5" ry="2.5" style="stroke:#181818;stroke-width:0.5;" width="104.3359" x="266.83" y="254.1144"/><rect fill="#F1F1F1" height="10" style="stroke:#181818;stroke-width:0.5;" width="15" x="351.1659" y="259.1144"/><rect fill="#F1F1F1" height="2" style="stroke:#181818;stroke-width:0.5;" width="4" x="349.1659" y="261.1144"/><rect fill="#F1F1F1" height="2" style="stroke:#181818;stroke-width:0.5;" width="4" x="349.1659" y="265.1144"/><text fill="#000000" font-family="sans-serif" font-size="24" lengthAdjust="spacing" textLength="64.3359" x="281.83" y="297.3175">Login</text></g><!--entity StudentDashboard--><g id="elem_StudentDashboard"><rect fill="#F1F1F1" height="58.2656" rx="2.5" ry="2.5" style="stroke:#181818;stroke-width:0.5;" width="255.5313" x="406.23" y="254.1144"/><rect fill="#F1F1F1" height="10" style="stroke:#181818;stroke-width:0.5;" width="15" x="641.7613" y="259.1144"/><rect fill="#F1F1F1" height="2" style="stroke:#181818;stroke-width:0.5;" width="4" x="639.7613" y="261.1144"/><rect fill="#F1F1F1" height="2" style="stroke:#181818;stroke-width:0.5;" width="4" x="639.7613" y="265.1144"/><text fill="#000000" font-family="sans-serif" font-size="24" lengthAdjust="spacing" textLength="215.5313" x="421.23" y="297.3175">StudentDashboard</text></g><!--entity InstructorDashboard--><g id="elem_InstructorDashboard"><rect fill="#F1F1F1" height="58.2656" rx="2.5" ry="2.5" style="stroke:#181818;stroke-width:0.5;" width="279.9531" x="697.02" y="254.1144"/><rect fill="#F1F1F1" height="10" style="stroke:#181818;stroke-width:0.5;" width="15" x="956.9731" y="259.1144"/><rect fill="#F1F1F1" height="2" style="stroke:#181818;stroke-width:0.5;" width="4" x="954.9731" y="261.1144"/><rect fill="#F1F1F1" height="2" style="stroke:#181818;stroke-width:0.5;" width="4" x="954.9731" y="265.1144"/><text fill="#000000" font-family="sans-serif" font-size="24" lengthAdjust="spacing" textLength="239.9531" x="712.02" y="297.3175">InstructorDashboard</text></g><!--entity CreateTeams--><g id="elem_CreateTeams"><rect fill="#F1F1F1" height="58.2656" rx="2.5" ry="2.5" style="stroke:#181818;stroke-width:0.5;" width="191.8398" x="1012.08" y="254.1144"/><rect fill="#F1F1F1" height="10" style="stroke:#181818;stroke-width:0.5;" width="15" x="1183.9198" y="259.1144"/><rect fill="#F1F1F1" height="2" style="stroke:#181818;stroke-width:0.5;" width="4" x="1181.9198" y="261.1144"/><rect fill="#F1F1F1" height="2" style="stroke:#181818;stroke-width:0.5;" width="4" x="1181.9198" y="265.1144"/><text fill="#000000" font-family="sans-serif" font-size="24" lengthAdjust="spacing" textLength="151.8398" x="1027.08" y="297.3175">CreateTeams</text></g><!--entity Teams--><g id="elem_Teams"><rect fill="#F1F1F1" height="58.2656" rx="2.5" ry="2.5" style="stroke:#181818;stroke-width:0.5;" width="116.4414" x="1238.78" y="254.1144"/><rect fill="#F1F1F1" height="10" style="stroke:#181818;stroke-width:0.5;" width="15" x="1335.2214" y="259.1144"/><rect fill="#F1F1F1" height="2" style="stroke:#181818;stroke-width:0.5;" width="4" x="1333.2214" y="261.1144"/><rect fill="#F1F1F1" height="2" style="stroke:#181818;stroke-width:0.5;" width="4" x="1333.2214" y="265.1144"/><text fill="#000000" font-family="sans-serif" font-size="24" lengthAdjust="spacing" textLength="76.4414" x="1253.78" y="297.3175">Teams</text></g><!--entity TeamList--><g id="elem_TeamList"><rect fill="#F1F1F1" height="58.2656" rx="2.5" ry="2.5" style="stroke:#181818;stroke-width:0.5;" width="145.1523" x="1390.42" y="254.1144"/><rect fill="#F1F1F1" height="10" style="stroke:#181818;stroke-width:0.5;" width="15" x="1515.5723" y="259.1144"/><rect fill="#F1F1F1" height="2" style="stroke:#181818;stroke-width:0.5;" width="4" x="1513.5723" y="261.1144"/><rect fill="#F1F1F1" height="2" style="stroke:#181818;stroke-width:0.5;" width="4" x="1513.5723" y="265.1144"/><text fill="#000000" font-family="sans-serif" font-size="24" lengthAdjust="spacing" textLength="105.1523" x="1405.42" y="297.3175">TeamList</text></g><!--entity TeamDetails--><g id="elem_TeamDetails"><rect fill="#F1F1F1" height="58.2656" rx="2.5" ry="2.5" style="stroke:#181818;stroke-width:0.5;" width="183.8945" x="1571.05" y="254.1144"/><rect fill="#F1F1F1" height="10" style="stroke:#181818;stroke-width:0.5;" width="15" x="1734.9445" y="259.1144"/><rect fill="#F1F1F1" height="2" style="stroke:#181818;stroke-width:0.5;" width="4" x="1732.9445" y="261.1144"/><rect fill="#F1F1F1" height="2" style="stroke:#181818;stroke-width:0.5;" width="4" x="1732.9445" y="265.1144"/><text fill="#000000" font-family="sans-serif" font-size="24" lengthAdjust="spacing" textLength="143.8945" x="1586.05" y="297.3175">TeamDetails</text></g><!--entity TeammatesList--><g id="elem_TeammatesList"><rect fill="#F1F1F1" height="58.2656" rx="2.5" ry="2.5" style="stroke:#181818;stroke-width:0.5;" width="215.3945" x="1790.3" y="254.1144"/><rect fill="#F1F1F1" height="10" style="stroke:#181818;stroke-width:0.5;" width="15" x="1985.6945" y="259.1144"/><rect fill="#F1F1F1" height="2" style="stroke:#181818;stroke-width:0.5;" width="4" x="1983.6945" y="261.1144"/><rect fill="#F1F1F1" height="2" style="stroke:#181818;stroke-width:0.5;" width="4" x="1983.6945" y="265.1144"/><text fill="#000000" font-family="sans-serif" font-size="24" lengthAdjust="spacing" textLength="175.3945" x="1805.3" y="297.3175">TeammatesList</text></g><!--entity PeerEvaluationForm--><g id="elem_PeerEvaluationForm"><rect fill="#F1F1F1" height="58.2656" rx="2.5" ry="2.5" style="stroke:#181818;stroke-width:0.5;" width="268.9844" x="2040.51" y="254.1144"/><rect fill="#F1F1F1" height="10" style="stroke:#181818;stroke-width:0.5;" width="15" x="2289.4944" y="259.1144"/><rect fill="#F1F1F1" height="2" style="stroke:#181818;stroke-width:0.5;" width="4" x="2287.4944" y="261.1144"/><rect fill="#F1F1F1" height="2" style="stroke:#181818;stroke-width:0.5;" width="4" x="2287.4944" y="265.1144"/><text fill="#000000" font-family="sans-serif" font-size="24" lengthAdjust="spacing" textLength="228.9844" x="2055.51" y="297.3175">PeerEvaluationForm</text></g><!--entity PeerEvaluationIntro--><g id="elem_PeerEvaluationIntro"><rect fill="#F1F1F1" height="58.2656" rx="2.5" ry="2.5" style="stroke:#181818;stroke-width:0.5;" width="264.4961" x="2344.75" y="254.1144"/><rect fill="#F1F1F1" height="10" style="stroke:#181818;stroke-width:0.5;" width="15" x="2589.2461" y="259.1144"/><rect fill="#F1F1F1" height="2" style="stroke:#181818;stroke-width:0.5;" width="4" x="2587.2461" y="261.1144"/><rect fill="#F1F1F1" height="2" style="stroke:#181818;stroke-width:0.5;" width="4" x="2587.2461" y="265.1144"/><text fill="#000000" font-family="sans-serif" font-size="24" lengthAdjust="spacing" textLength="224.4961" x="2359.75" y="297.3175">PeerEvaluationIntro</text></g><!--entity loggedIn (useState)--><g id="elem_loggedIn (useState)"><ellipse cx="2936" cy="283.2444" fill="#F1F1F1" rx="8" ry="8" style="stroke:#181818;stroke-width:0.5;"/><text fill="#000000" font-family="sans-serif" font-size="26" lengthAdjust="spacing" textLength="241.6934" x="2815.1533" y="325.3811">loggedIn (useState)</text></g><!--entity email (useState)--><g id="elem_email (useState)"><ellipse cx="3206" cy="283.2444" fill="#F1F1F1" rx="8" ry="8" style="stroke:#181818;stroke-width:0.5;"/><text fill="#000000" font-family="sans-serif" font-size="26" lengthAdjust="spacing" textLength="199.4561" x="3106.272" y="325.3811">email (useState)</text></g><!--entity role (useState)--><g id="elem_role (useState)"><ellipse cx="3445" cy="283.2444" fill="#F1F1F1" rx="8" ry="8" style="stroke:#181818;stroke-width:0.5;"/><text fill="#000000" font-family="sans-serif" font-size="26" lengthAdjust="spacing" textLength="179.918" x="3355.041" y="325.3811">role (useState)</text></g><!--entity organizations (useState)--><g id="elem_organizations (useState)"><ellipse cx="3737" cy="283.2444" fill="#F1F1F1" rx="8" ry="8" style="stroke:#181818;stroke-width:0.5;"/><text fill="#000000" font-family="sans-serif" font-size="26" lengthAdjust="spacing" textLength="304.002" x="3584.999" y="325.3811">organizations (useState)</text></g><!--entity courses (useState)--><g id="elem_courses (useState)"><ellipse cx="4054" cy="283.2444" fill="#F1F1F1" rx="8" ry="8" style="stroke:#181818;stroke-width:0.5;"/><text fill="#000000" font-family="sans-serif" font-size="26" lengthAdjust="spacing" textLength="228.3633" x="3939.8184" y="325.3811">courses (useState)</text></g><!--entity teams (useState)--><g id="elem_teams (useState)"><ellipse cx="4322" cy="283.2444" fill="#F1F1F1" rx="8" ry="8" style="stroke:#181818;stroke-width:0.5;"/><text fill="#000000" font-family="sans-serif" font-size="26" lengthAdjust="spacing" textLength="207.4033" x="4218.2983" y="325.3811">teams (useState)</text></g><!--entity students (useState)--><g id="elem_students (useState)"><ellipse cx="4596" cy="283.2444" fill="#F1F1F1" rx="8" ry="8" style="stroke:#181818;stroke-width:0.5;"/><text fill="#000000" font-family="sans-serif" font-size="26" lengthAdjust="spacing" textLength="240.3857" x="4475.8071" y="325.3811">students (useState)</text></g><!--entity memberships (useState)--><g id="elem_memberships (useState)"><ellipse cx="4918" cy="283.2444" fill="#F1F1F1" rx="8" ry="8" style="stroke:#181818;stroke-width:0.5;"/><text fill="#000000" font-family="sans-serif" font-size="26" lengthAdjust="spacing" textLength="302.3516" x="4766.8242" y="325.3811">memberships (useState)</text></g><!--entity fetchData--><g id="elem_fetchData"><rect fill="#F1F1F1" height="58.2656" rx="2.5" ry="2.5" style="stroke:#181818;stroke-width:0.5;" width="151.8203" x="5351.09" y="254.1144"/><rect fill="#F1F1F1" height="10" style="stroke:#181818;stroke-width:0.5;" width="15" x="5482.9103" y="259.1144"/><rect fill="#F1F1F1" height="2" style="stroke:#181818;stroke-width:0.5;" width="4" x="5480.9103" y="261.1144"/><rect fill="#F1F1F1" height="2" style="stroke:#181818;stroke-width:0.5;" width="4" x="5480.9103" y="265.1144"/><text fill="#000000" font-family="sans-serif" font-size="24" lengthAdjust="spacing" textLength="111.8203" x="5366.09" y="297.3175">fetchData</text></g><!--entity Courses API--><g id="elem_Courses API"><rect fill="#F1F1F1" height="58.2656" rx="2.5" ry="2.5" style="stroke:#181818;stroke-width:0.5;" width="178.2344" x="5132.88" y="389.2444"/><rect fill="#F1F1F1" height="10" style="stroke:#181818;stroke-width:0.5;" width="15" x="5291.1144" y="394.2444"/><rect fill="#F1F1F1" height="2" style="stroke:#181818;stroke-width:0.5;" width="4" x="5289.1144" y="396.2444"/><rect fill="#F1F1F1" height="2" style="stroke:#181818;stroke-width:0.5;" width="4" x="5289.1144" y="400.2444"/><text fill="#000000" font-family="sans-serif" font-size="24" lengthAdjust="spacing" textLength="138.2344" x="5147.88" y="432.4475">Courses API</text></g><!--entity Teams API--><g id="elem_Teams API"><rect fill="#F1F1F1" height="58.2656" rx="2.5" ry="2.5" style="stroke:#181818;stroke-width:0.5;" width="160.7734" x="5346.61" y="389.2444"/><rect fill="#F1F1F1" height="10" style="stroke:#181818;stroke-width:0.5;" width="15" x="5487.3834" y="394.2444"/><rect fill="#F1F1F1" height="2" style="stroke:#181818;stroke-width:0.5;" width="4" x="5485.3834" y="396.2444"/><rect fill="#F1F1F1" height="2" style="stroke:#181818;stroke-width:0.5;" width="4" x="5485.3834" y="400.2444"/><text fill="#000000" font-family="sans-serif" font-size="24" lengthAdjust="spacing" textLength="120.7734" x="5361.61" y="432.4475">Teams API</text></g><!--entity Peer Evaluations API--><g id="elem_Peer Evaluations API"><rect fill="#F1F1F1" height="58.2656" rx="2.5" ry="2.5" style="stroke:#181818;stroke-width:0.5;" width="273.3086" x="5542.35" y="389.2444"/><rect fill="#F1F1F1" height="10" style="stroke:#181818;stroke-width:0.5;" width="15" x="5795.6586" y="394.2444"/><rect fill="#F1F1F1" height="2" style="stroke:#181818;stroke-width:0.5;" width="4" x="5793.6586" y="396.2444"/><rect fill="#F1F1F1" height="2" style="stroke:#181818;stroke-width:0.5;" width="4" x="5793.6586" y="400.2444"/><text fill="#000000" font-family="sans-serif" font-size="24" lengthAdjust="spacing" textLength="233.3086" x="5557.35" y="432.4475">Peer Evaluations API</text></g><!--entity Verify Token API--><g id="elem_Verify Token API"><rect fill="#F1F1F1" height="58.2656" rx="2.5" ry="2.5" style="stroke:#181818;stroke-width:0.5;" width="231.3203" x="5850.34" y="389.2444"/><rect fill="#F1F1F1" height="10" style="stroke:#181818;stroke-width:0.5;" width="15" x="6061.6603" y="394.2444"/><rect fill="#F1F1F1" height="2" style="stroke:#181818;stroke-width:0.5;" width="4" x="6059.6603" y="396.2444"/><rect fill="#F1F1F1" height="2" style="stroke:#181818;stroke-width:0.5;" width="4" x="6059.6603" y="400.2444"/><text fill="#000000" font-family="sans-serif" font-size="24" lengthAdjust="spacing" textLength="191.3203" x="5865.34" y="432.4475">Verify Token API</text></g><!--entity /teams/:id--><g id="elem_/teams/:id"><ellipse cx="4443" cy="617.5144" fill="#F1F1F1" rx="8" ry="8" style="stroke:#181818;stroke-width:0.5;"/><text fill="#000000" font-family="sans-serif" font-size="26" lengthAdjust="spacing" textLength="135.4717" x="4375.2642" y="659.6511">/teams/:id</text></g><!--entity /teams/:id/students--><g id="elem_/teams/:id/students"><ellipse cx="4690" cy="617.5144" fill="#F1F1F1" rx="8" ry="8" style="stroke:#181818;stroke-width:0.5;"/><text fill="#000000" font-family="sans-serif" font-size="26" lengthAdjust="spacing" textLength="258.1846" x="4560.9077" y="659.6511">/teams/:id/students</text></g><!--entity /teams/:id/students/:studentId--><g id="elem_/teams/:id/students/:studentId"><ellipse cx="5069" cy="617.5144" fill="#F1F1F1" rx="8" ry="8" style="stroke:#181818;stroke-width:0.5;"/><text fill="#000000" font-family="sans-serif" font-size="26" lengthAdjust="spacing" textLength="399.7246" x="4869.1377" y="659.6511">/teams/:id/students/:studentId</text></g><!--entity /teams/:id/size--><g id="elem_/teams/:id/size"><ellipse cx="5418" cy="617.5144" fill="#F1F1F1" rx="8" ry="8" style="stroke:#181818;stroke-width:0.5;"/><text fill="#000000" font-family="sans-serif" font-size="26" lengthAdjust="spacing" textLength="199.2656" x="5318.3672" y="659.6511">/teams/:id/size</text></g><!--entity /submit-evaluation--><g id="elem_/submit-evaluation"><ellipse cx="5690" cy="617.5144" fill="#F1F1F1" rx="8" ry="8" style="stroke:#181818;stroke-width:0.5;"/><text fill="#000000" font-family="sans-serif" font-size="26" lengthAdjust="spacing" textLength="245.6035" x="5567.1982" y="659.6511">/submit-evaluation</text></g><!--entity /peer-evaluations/check--><g id="elem_/peer-evaluations/check"><ellipse cx="6019" cy="617.5144" fill="#F1F1F1" rx="8" ry="8" style="stroke:#181818;stroke-width:0.5;"/><text fill="#000000" font-family="sans-serif" font-size="26" lengthAdjust="spacing" textLength="313.6504" x="5862.1748" y="659.6511">/peer-evaluations/check</text></g><!--entity /peer-evaluations/feedback--><g id="elem_/peer-evaluations/feedback"><ellipse cx="6403" cy="617.5144" fill="#F1F1F1" rx="8" ry="8" style="stroke:#181818;stroke-width:0.5;"/><text fill="#000000" font-family="sans-serif" font-size="26" lengthAdjust="spacing" textLength="355.3291" x="6225.3354" y="659.6511">/peer-evaluations/feedback</text></g><!--entity Rosters API--><g id="elem_Rosters API"><rect fill="#F1F1F1" height="58.2656" rx="2.5" ry="2.5" style="stroke:#181818;stroke-width:0.5;" width="170.8867" x="6622.56" y="588.3844"/><rect fill="#F1F1F1" height="10" style="stroke:#181818;stroke-width:0.5;" width="15" x="6773.4467" y="593.3844"/><rect fill="#F1F1F1" height="2" style="stroke:#181818;stroke-width:0.5;" width="4" x="6771.4467" y="595.3844"/><rect fill="#F1F1F1" height="2" style="stroke:#181818;stroke-width:0.5;" width="4" x="6771.4467" y="599.3844"/><text fill="#000000" font-family="sans-serif" font-size="24" lengthAdjust="spacing" textLength="130.8867" x="6637.56" y="631.5875">Rosters API</text></g><!--entity /rosters--><g id="elem_/rosters"><ellipse cx="6460" cy="793.5144" fill="#F1F1F1" rx="8" ry="8" style="stroke:#181818;stroke-width:0.5;"/><text fill="#000000" font-family="sans-serif" font-size="26" lengthAdjust="spacing" textLength="101.6006" x="6409.1997" y="835.6511">/rosters</text></g><!--entity Scores API--><g id="elem_Scores API"><rect fill="#F1F1F1" height="58.2656" rx="2.5" ry="2.5" style="stroke:#181818;stroke-width:0.5;" width="159.7188" x="6828.14" y="588.3844"/><rect fill="#F1F1F1" height="10" style="stroke:#181818;stroke-width:0.5;" width="15" x="6967.8588" y="593.3844"/><rect fill="#F1F1F1" height="2" style="stroke:#181818;stroke-width:0.5;" width="4" x="6965.8588" y="595.3844"/><rect fill="#F1F1F1" height="2" style="stroke:#181818;stroke-width:0.5;" width="4" x="6965.8588" y="599.3844"/><text fill="#000000" font-family="sans-serif" font-size="24" lengthAdjust="spacing" textLength="119.7188" x="6843.14" y="631.5875">Scores API</text></g><!--entity /scores--><g id="elem_/scores"><ellipse cx="6729" cy="793.5144" fill="#F1F1F1" rx="8" ry="8" style="stroke:#181818;stroke-width:0.5;"/><text fill="#000000" font-family="sans-serif" font-size="26" lengthAdjust="spacing" textLength="94.5547" x="6681.7227" y="835.6511">/scores</text></g><!--link App to loggedIn (useState)--><g id="link_App_loggedIn (useState)"><path d="M2742.01,115.4944 C2795.13,161.1544 2892.1604,244.5627 2922.6104,270.7427 " fill="none" id="App-to-loggedIn (useState)" style="stroke:#181818;stroke-width:1;"/><polygon fill="#181818" points="2927.16,274.6544,2922.9433,265.7538,2923.3686,271.3947,2917.7278,271.82,2927.16,274.6544" style="stroke:#181818;stroke-width:1;"/></g><!--link App to email (useState)--><g id="link_App_email (useState)"><path d="M2752.74,92.3244 C2824.63,102.1844 2970.86,127.7744 3082,183.2444 C3132.03,208.2244 3176.5221,251.5283 3194.5221,270.1683 " fill="none" id="App-to-email (useState)" style="stroke:#181818;stroke-width:1;"/><polygon fill="#181818" points="3198.69,274.4844,3195.3155,265.2316,3195.2168,270.8876,3189.5608,270.7888,3198.69,274.4844" style="stroke:#181818;stroke-width:1;"/></g><!--link App to role (useState)--><g id="link_App_role (useState)"><path d="M2752.83,90.7144 C2876.72,101.3744 3227.16,135.0944 3331,183.2444 C3379.51,205.7444 3419.2995,250.6115 3434.9995,269.7915 " fill="none" id="App-to-role (useState)" style="stroke:#181818;stroke-width:1;"/><polygon fill="#181818" points="3438.8,274.4344,3436.1945,264.9364,3435.6329,270.5653,3430.004,270.0037,3438.8,274.4344" style="stroke:#181818;stroke-width:1;"/></g><!--link App to organizations (useState)--><g id="link_App_organizations (useState)"><path d="M2752.63,89.6344 C2904.24,98.7544 3407.34,132.2444 3560,183.2444 C3629.8,206.5644 3698.7504,254.2615 3723.5004,272.2915 " fill="none" id="App-to-organizations (useState)" style="stroke:#181818;stroke-width:1;"/><polygon fill="#181818" points="3728.35,275.8244,3723.4308,267.292,3724.3087,272.8803,3718.7203,273.7581,3728.35,275.8244" style="stroke:#181818;stroke-width:1;"/></g><!--link App to courses (useState)--><g id="link_App_courses (useState)"><path d="M2752.68,87.4544 C2942.38,89.4244 3695.11,102.2844 3915,183.2444 C3971.99,204.2344 4022.58,250.8692 4042.17,270.2992 " fill="none" id="App-to-courses (useState)" style="stroke:#181818;stroke-width:1;"/><polygon fill="#181818" points="4046.43,274.5244,4042.8568,265.3466,4042.88,271.0034,4037.2232,271.0266,4046.43,274.5244" style="stroke:#181818;stroke-width:1;"/></g><!--link App to teams (useState)--><g id="link_App_teams (useState)"><path d="M2752.7,88.3844 C2904.77,93.0144 3424.85,110.5444 3853,145.2444 C4005,157.5644 4052.65,126.0244 4194,183.2444 C4247.12,204.7544 4292.7834,250.452 4310.8034,269.912 " fill="none" id="App-to-teams (useState)" style="stroke:#181818;stroke-width:1;"/><polygon fill="#181818" points="4314.88,274.3144,4311.7,264.993,4311.4828,270.6457,4305.8301,270.4285,4314.88,274.3144" style="stroke:#181818;stroke-width:1;"/></g><!--link App to students (useState)--><g id="link_App_students (useState)"><path d="M2752.6,88.2644 C2919.38,92.8344 3532.76,111.0944 4037,145.2444 C4221.35,157.7344 4277.13,120.7044 4451,183.2444 C4509.51,204.2944 4562.4743,250.5591 4583.3543,270.1491 " fill="none" id="App-to-students (useState)" style="stroke:#181818;stroke-width:1;"/><polygon fill="#181818" points="4587.73,274.2544,4583.9034,265.1793,4584.0836,270.8333,4578.4296,271.0135,4587.73,274.2544" style="stroke:#181818;stroke-width:1;"/></g><!--link App to memberships (useState)--><g id="link_App_memberships (useState)"><path d="M2752.68,88.1144 C2935.9,92.4344 3660.39,110.8844 4255,145.2444 C4471.74,157.7744 4534.28,120.1044 4742,183.2444 C4811.77,204.4544 4879.5707,252.927 4904.3407,271.727 " fill="none" id="App-to-memberships (useState)" style="stroke:#181818;stroke-width:1;"/><polygon fill="#181818" points="4909.12,275.3544,4904.3693,266.727,4905.1372,272.3315,4899.5328,273.0995,4909.12,275.3544" style="stroke:#181818;stroke-width:1;"/></g><!--link App to fetchData--><g id="link_App_fetchData"><path d="M2752.68,87.2544 C3036.17,88.4144 4618.43,98.6244 5093,183.2444 C5183.35,199.3644 5278.2815,229.1876 5345.2315,252.4176 " fill="none" id="App-to-fetchData" style="stroke:#181818;stroke-width:1;"/><polygon fill="#181818" points="5350.9,254.3844,5343.7085,247.6552,5346.1763,252.7454,5341.0861,255.2131,5350.9,254.3844" style="stroke:#181818;stroke-width:1;"/></g><!--link fetchData to Courses API--><g id="link_fetchData_Courses API"><path d="M5383.02,312.8044 C5348.43,335.2744 5305.502,363.1465 5270.932,385.5965 " fill="none" id="fetchData-to-Courses API" style="stroke:#181818;stroke-width:1;"/><polygon fill="#181818" points="5265.9,388.8644,5275.6266,387.3173,5270.0934,386.1412,5271.2695,380.6079,5265.9,388.8644" style="stroke:#181818;stroke-width:1;"/></g><!--link fetchData to Teams API--><g id="link_fetchData_Teams API"><path d="M5427,312.8044 C5427,335.2744 5427,360.4144 5427,382.8644 " fill="none" id="fetchData-to-Teams API" style="stroke:#181818;stroke-width:1;"/><polygon fill="#181818" points="5427,388.8644,5431,379.8644,5427,383.8644,5423,379.8644,5427,388.8644" style="stroke:#181818;stroke-width:1;"/></g><!--link fetchData to Peer Evaluations API--><g id="link_fetchData_Peer Evaluations API"><path d="M5481.06,312.8044 C5523.58,335.2744 5577.2247,363.6119 5619.7247,386.0619 " fill="none" id="fetchData-to-Peer Evaluations API" style="stroke:#181818;stroke-width:1;"/><polygon fill="#181818" points="5625.03,388.8644,5618.9403,381.1238,5620.6089,386.529,5615.2037,388.1976,5625.03,388.8644" style="stroke:#181818;stroke-width:1;"/></g><!--link fetchData to Verify Token API--><g id="link_fetchData_Verify Token API"><path d="M5503.37,303.1144 C5593.76,325.4344 5739.3951,361.4052 5844.2651,387.3152 " fill="none" id="fetchData-to-Verify Token API" style="stroke:#181818;stroke-width:1;"/><polygon fill="#181818" points="5850.09,388.7544,5842.3121,382.7124,5845.236,387.5551,5840.3933,390.4789,5850.09,388.7544" style="stroke:#181818;stroke-width:1;"/></g><!--link Teams API to /teams/:id--><g id="link_Teams API_/teams/:id"><path d="M5384.44,447.7444 C5367.86,457.2244 5348.24,466.6144 5329,471.5144 C5306.79,477.1644 4523.16,466.9444 4504,479.5144 C4457.64,509.9444 4446.8258,578.6071 4444.2858,602.8271 " fill="none" id="Teams API-to-/teams/:id" style="stroke:#181818;stroke-width:1;"/><polygon fill="#181818" points="4443.66,608.7944,4448.5769,600.2607,4444.1815,603.8216,4440.6205,599.4263,4443.66,608.7944" style="stroke:#181818;stroke-width:1;"/><text fill="#000000" font-family="sans-serif" font-size="24" lengthAdjust="spacing" textLength="268.6055" x="4505" y="503.7175">Get specific team by ID</text></g><!--link Teams API to /teams/:id/students--><g id="link_Teams API_/teams/:id/students"><path d="M5383.94,447.9544 C5367.46,457.3344 5348.03,466.6044 5329,471.5144 C5301.99,478.4844 4852.68,468.6344 4827,479.5144 C4761.03,507.4544 4713.1452,578.6348 4697.8552,603.4748 " fill="none" id="Teams API-to-/teams/:id/students" style="stroke:#181818;stroke-width:1;"/><polygon fill="#181818" points="4694.71,608.5844,4702.8341,603.0168,4697.331,604.3264,4696.0213,598.8232,4694.71,608.5844" style="stroke:#181818;stroke-width:1;"/><text fill="#000000" font-family="sans-serif" font-size="24" lengthAdjust="spacing" textLength="239.7305" x="4828" y="503.7175">Add student to team</text></g><!--link Teams API to /teams/:id/students/:studentId--><g id="link_Teams API_/teams/:id/students/:studentId"><path d="M5383.89,447.7644 C5367.4,457.1244 5347.99,466.4244 5329,471.5144 C5316.54,474.8544 5106.85,471.1844 5097,479.5144 C5057.7,512.7444 5063.4369,578.9553 5066.8569,602.7653 " fill="none" id="Teams API-to-/teams/:id/students/:studentId" style="stroke:#181818;stroke-width:1;"/><polygon fill="#181818" points="5067.71,608.7044,5070.3898,599.2271,5066.9991,603.7552,5062.471,600.3645,5067.71,608.7044" style="stroke:#181818;stroke-width:1;"/><text fill="#000000" font-family="sans-serif" font-size="24" lengthAdjust="spacing" textLength="316.5234" x="5098" y="503.7175">Remove student from team</text></g><!--link Teams API to /teams/:id/size--><g id="link_Teams API_/teams/:id/size"><path d="M5425.71,447.6244 C5423.61,493.6144 5419.8452,576.2407 5418.6252,602.8107 " fill="none" id="Teams API-to-/teams/:id/size" style="stroke:#181818;stroke-width:1;"/><polygon fill="#181818" points="5418.35,608.8044,5422.7586,599.9973,5418.5793,603.8096,5414.767,599.6304,5418.35,608.8044" style="stroke:#181818;stroke-width:1;"/><text fill="#000000" font-family="sans-serif" font-size="24" lengthAdjust="spacing" textLength="201.9375" x="5425.09" y="503.7175">Update team size</text></g><!--link Peer Evaluations API to /submit-evaluation--><g id="link_Peer Evaluations API_/submit-evaluation"><path d="M5680.58,447.6244 C5683.14,493.6144 5687.7563,576.2437 5689.2363,602.8137 " fill="none" id="Peer Evaluations API-to-/submit-evaluation" style="stroke:#181818;stroke-width:1;"/><polygon fill="#181818" points="5689.57,608.8044,5693.0633,599.5958,5689.2919,603.8121,5685.0756,600.0408,5689.57,608.8044" style="stroke:#181818;stroke-width:1;"/><text fill="#000000" font-family="sans-serif" font-size="24" lengthAdjust="spacing" textLength="267.7852" x="5684.84" y="503.7175">Submit peer evaluation</text></g><!--link Peer Evaluations API to /peer-evaluations/check--><g id="link_Peer Evaluations API_/peer-evaluations/check"><path d="M5750.4,447.9244 C5776.04,457.0044 5805.44,466.0844 5833,471.5144 C5846.98,474.2644 5949.37,471.2744 5961,479.5144 C6005.68,511.1644 6015.5679,578.3708 6017.8479,602.6008 " fill="none" id="Peer Evaluations API-to-/peer-evaluations/check" style="stroke:#181818;stroke-width:1;"/><polygon fill="#181818" points="6018.41,608.5744,6021.5492,599.2392,6017.9416,603.5964,6013.5844,599.9887,6018.41,608.5744" style="stroke:#181818;stroke-width:1;"/><text fill="#000000" font-family="sans-serif" font-size="24" lengthAdjust="spacing" textLength="297.8906" x="5988.75" y="503.7175">Check if evaluation exists</text></g><!--link Peer Evaluations API to /peer-evaluations/feedback--><g id="link_Peer Evaluations API_/peer-evaluations/feedback"><path d="M5748.34,447.9344 C5774.42,457.3144 5804.63,466.5944 5833,471.5144 C5858.29,475.9044 6272,468.1144 6295,479.5144 C6352.8,508.1644 6386.8124,578.4712 6397.4024,603.1312 " fill="none" id="Peer Evaluations API-to-/peer-evaluations/feedback" style="stroke:#181818;stroke-width:1;"/><polygon fill="#181818" points="6399.77,608.6444,6399.8941,598.7963,6397.797,604.0501,6392.5432,601.953,6399.77,608.6444" style="stroke:#181818;stroke-width:1;"/><text fill="#000000" font-family="sans-serif" font-size="24" lengthAdjust="spacing" textLength="218.2383" x="6333.91" y="503.7175">Get team feedback</text></g><!--link Rosters API to /rosters--><g id="link_Rosters API_/rosters"><path d="M6640.19,647.0844 C6628.82,651.6844 6617.11,656.3144 6606,660.5144 C6567.74,674.9744 6550.56,664.5044 6519,690.5144 C6486.95,716.9244 6470.4922,759.8807 6464.2822,778.9007 " fill="none" id="Rosters API-to-/rosters" style="stroke:#181818;stroke-width:1;"/><polygon fill="#181818" points="6462.42,784.6044,6469.0158,777.2903,6463.9719,779.8513,6461.4109,774.8073,6462.42,784.6044" style="stroke:#181818;stroke-width:1;"/><text fill="#000000" font-family="sans-serif" font-size="24" lengthAdjust="spacing" textLength="227.1563" x="6520" y="714.7175">Create a new roster</text></g><!--link Scores API to /scores--><g id="link_Scores API_/scores"><path d="M6836.99,647.1344 C6815.69,658.2744 6793.57,672.7144 6776.86,690.5144 C6749.82,719.3244 6737.1488,760.3646 6732.3788,778.8546 " fill="none" id="Scores API-to-/scores" style="stroke:#181818;stroke-width:1;"/><polygon fill="#181818" points="6730.88,784.6644,6737.0014,776.9489,6732.129,779.8229,6729.255,774.9505,6730.88,784.6644" style="stroke:#181818;stroke-width:1;"/><text fill="#000000" font-family="sans-serif" font-size="24" lengthAdjust="spacing" textLength="257.3203" x="6777.86" y="714.7175">Store score for a team</text></g><!--link Routes to Home--><g id="link_Routes_Home"><path d="M1522.9,89.0744 C1747.39,96.8044 2530.95,127.5844 2627,183.2444 C2654.63,199.2644 2671.6978,225.4523 2683.2378,248.6523 " fill="none" id="Routes-to-Home" style="stroke:#181818;stroke-width:1;"/><polygon fill="#181818" points="2685.91,254.0244,2685.4832,244.1848,2683.6832,249.5476,2678.3204,247.7477,2685.91,254.0244" style="stroke:#181818;stroke-width:1;"/></g><!--link Routes to Login--><g id="link_Routes_Login"><path d="M1403,89.4644 C1189.73,98.2244 476.4,131.1744 389,183.2444 C361.87,199.4144 345.1562,225.2444 333.7662,248.3144 " fill="none" id="Routes-to-Login" style="stroke:#181818;stroke-width:1;"/><polygon fill="#181818" points="331.11,253.6944,338.681,247.3951,333.3235,249.211,331.5076,243.8535,331.11,253.6944" style="stroke:#181818;stroke-width:1;"/></g><!--link Routes to StudentDashboard--><g id="link_Routes_StudentDashboard"><path d="M1403.09,90.8244 C1243.79,101.2544 812.87,133.3844 680,183.2444 C636.99,199.3844 598.8912,226.7897 570.8712,249.8697 " fill="none" id="Routes-to-StudentDashboard" style="stroke:#181818;stroke-width:1;"/><polygon fill="#181818" points="566.24,253.6844,575.7299,251.0498,570.0993,250.5055,570.6437,244.8748,566.24,253.6844" style="stroke:#181818;stroke-width:1;"/></g><!--link Routes to InstructorDashboard--><g id="link_Routes_InstructorDashboard"><path d="M1403.04,92.5344 C1312.07,102.2644 1134.94,127.1644 995,183.2444 C950.53,201.0744 909.5213,227.8438 878.7413,250.2438 " fill="none" id="Routes-to-InstructorDashboard" style="stroke:#181818;stroke-width:1;"/><polygon fill="#181818" points="873.89,253.7744,883.5207,251.7128,877.9328,250.8323,878.8133,245.2444,873.89,253.7744" style="stroke:#181818;stroke-width:1;"/></g><!--link Routes to CreateTeams--><g id="link_Routes_CreateTeams"><path d="M1402.9,104.6344 C1352.24,120.8644 1278.95,147.8144 1221,183.2444 C1188.73,202.9744 1161.0224,227.8816 1139.3624,249.4416 " fill="none" id="Routes-to-CreateTeams" style="stroke:#181818;stroke-width:1;"/><polygon fill="#181818" points="1135.11,253.6744,1144.3105,250.1601,1138.6537,250.147,1138.6668,244.4902,1135.11,253.6744" style="stroke:#181818;stroke-width:1;"/></g><!--link Routes to Teams--><g id="link_Routes_Teams"><path d="M1435.07,115.4744 C1416.9,134.2644 1392.97,159.7144 1373,183.2444 C1353.37,206.3844 1336.0519,229.0035 1321.1519,249.1135 " fill="none" id="Routes-to-Teams" style="stroke:#181818;stroke-width:1;"/><polygon fill="#181818" points="1317.58,253.9344,1326.1519,249.0843,1320.5566,249.9169,1319.724,244.3217,1317.58,253.9344" style="stroke:#181818;stroke-width:1;"/></g><!--link Routes to TeamList--><g id="link_Routes_TeamList"><path d="M1463,115.4944 C1463,152.4844 1463,210.8244 1463,247.8444 " fill="none" id="Routes-to-TeamList" style="stroke:#181818;stroke-width:1;"/><polygon fill="#181818" points="1463,253.8444,1467,244.8444,1463,248.8444,1459,244.8444,1463,253.8444" style="stroke:#181818;stroke-width:1;"/></g><!--link Routes to TeamDetails--><g id="link_Routes_TeamDetails"><path d="M1492.08,115.4944 C1530,152.4844 1591.6562,212.6336 1629.5862,249.6536 " fill="none" id="Routes-to-TeamDetails" style="stroke:#181818;stroke-width:1;"/><polygon fill="#181818" points="1633.88,253.8444,1630.2331,244.6956,1630.3018,250.352,1624.6454,250.4207,1633.88,253.8444" style="stroke:#181818;stroke-width:1;"/><text fill="#000000" font-family="sans-serif" font-size="24" lengthAdjust="spacing" textLength="271.7578" x="1552.03" y="169.4475">if userRole = instructor</text></g><!--link Routes to TeammatesList--><g id="link_Routes_TeammatesList"><path d="M1523.16,89.9044 C1614.9,95.2444 1784.17,109.7144 1832,145.2444 C1867.39,171.5444 1883.2672,216.0055 1891.0272,247.7955 " fill="none" id="Routes-to-TeammatesList" style="stroke:#181818;stroke-width:1;"/><polygon fill="#181818" points="1892.45,253.6244,1894.2017,243.9325,1891.2643,248.767,1886.4298,245.8296,1892.45,253.6244" style="stroke:#181818;stroke-width:1;"/><text fill="#000000" font-family="sans-serif" font-size="24" lengthAdjust="spacing" textLength="246.6211" x="1860.7" y="169.4475">if userRole = student</text></g><!--link Routes to PeerEvaluationForm--><g id="link_Routes_PeerEvaluationForm"><path d="M1523.12,88.9844 C1675.58,94.2244 2068.57,110.9244 2116,145.2444 C2151.24,170.7544 2164.5847,215.8779 2170.3147,247.9479 " fill="none" id="Routes-to-PeerEvaluationForm" style="stroke:#181818;stroke-width:1;"/><polygon fill="#181818" points="2171.37,253.8544,2173.7247,244.2911,2170.4906,248.9323,2165.8494,245.6982,2171.37,253.8544" style="stroke:#181818;stroke-width:1;"/></g><!--link Routes to PeerEvaluationIntro--><g id="link_Routes_PeerEvaluationIntro"><path d="M1523.08,89.4944 C1694.11,96.9244 2180.66,122.9444 2327,183.2444 C2369.7,200.8444 2408.4128,227.515 2437.4828,249.985 " fill="none" id="Routes-to-PeerEvaluationIntro" style="stroke:#181818;stroke-width:1;"/><polygon fill="#181818" points="2442.23,253.6544,2437.5555,244.9855,2438.274,250.5966,2432.663,251.3151,2442.23,253.6544" style="stroke:#181818;stroke-width:1;"/></g><!--SRC=[dLLDJzmm4BtlhnZbGdj0Yr3L0r8hBRlGHg8IOcbxG1oyyIHh4TkHxR10rVzUVoNhx2u1DITxvitBVDZF-e69XYZ2eIRFiZLGOsd0I52iMXkWJ65Xc1GJtGCfbgIjpQKKPibU44u_0y0HvA9GI3H2QHsWhIU9AIHlf42HH7rAOth_mUYD8irlHiqQJazE87v7CAjhkG4k5O9kIE7-hC3Wa_413HDLmj4GIgt5CW1iAVe4785phz1i40LWZTocenC6efJSfFc_KhPFmuFrP69f7qY5aDqWAGpCkpfr1dycZk5krZJtOVKT2KKLDvTIcdvpxiXGtTW1zJQ_qLsev1YNLx9Y8gwNfgNsPmkYroj958tcN6YZsi98jUkPsreCtYBX7VFk-effasmNQ0YhKm2t13f1NIEgYqTIjyITeqkf-457BeoIzvE_ISkMnbB13oBipWrZq38uFluAMIsh2caku4EhqUC_PhiOv3R3CO2IDOxvfQg8O2y-JJq6B6IhD8v2Z6ld6427aOrYEF8LAhrcpH2MDk_SBb1GT-9uArZXiz_lu5s9fbWlY25nAjjzyCzZJRFh_1M4Fo4ZVZTds0vw3FeB5IkVuLRQr0CiBSaQu4BGHhBq_cn_7vepzIsUdZ6QmHbatz3UoWOBLh82d0jMpv0lihU2fzqWFCkCKeW69uuEzNw6wLbSvI6b6-Jo4Nk-Kad-NaOhBvxYPqFTtV3rUEFsIksrEhBeTiMPESRUwucMtWgD2qnSRzEvY8HCJuir5W-US-vMmCg44F39AeB-7zuIaQv8f7RJz4NtrauCjLN60P4Aff2HbpKW8703mH43buLzFePzyfRG7EFV5cS8eXx7P0zb9x_Xt0Rv7TgY3W-D-u8yz1zKvY5a8D53rwl68CVxzawzNR5sNgr_OwmOVW7M9v8TYDjg_7vaFDQxOOUUWJ54V0_-0G00]--></g></svg>