<?xml version="1.0" encoding="UTF-8"?>
<svg id="Layer_1" data-name="Layer 1" xmlns="http://www.w3.org/2000/svg" width="231.52" height="239.51" viewBox="0 0 231.52 239.51">
  <defs>
    <style>
      .cls-1 {
        fill: #f57e20;
      }

      .cls-1, .cls-2, .cls-3, .cls-4, .cls-5 {
        stroke-width: 0px;
      }

      .cls-2 {
        fill: #b18c62;
      }

      .cls-3 {
        fill: #92002c;
      }

      .cls-4 {
        fill: #fdb913;
      }

      .cls-5 {
        fill: #f15a22;
      }
    </style>
  </defs>
  <polygon class="cls-3" points="166.56 167.26 160.95 167.26 124.14 239.51 129.75 239.51 166.56 167.26"/>
  <path class="cls-2" d="m141.84,104.94c-6.71-6.43-14.92-9.68-24.42-9.68-4.12,0-8.14.7-11.99,2.08l1.31-8.65h29.18v-8.93h-37.13l-4.95,34.52,3.11-2.5c1.56-1.25,3.63-2.54,6.17-3.82,4.98-2.5,9.79-3.77,14.3-3.77,6.97,0,13.01,2.38,17.95,7.08,5.01,4.74,7.45,10.3,7.45,16.99s-2.44,12.24-7.45,16.99c-4.93,4.7-10.97,7.08-17.94,7.08-6.36,0-11.99-2.03-16.75-6.04-4.74-3.99-7.55-9-8.33-14.87l-.18-1.36h-9.26l.19,1.75c.92,8.29,4.71,15.33,11.23,20.93,6.52,5.66,14.29,8.53,23.09,8.53,9.49,0,17.71-3.24,24.42-9.63,6.73-6.45,10.14-14.31,10.14-23.36s-3.41-16.9-10.14-23.31"/>
  <path class="cls-2" d="m222.36,118.94c0,9.12-2.87,17.01-8.54,23.45-5.69,6.47-12.34,9.61-20.33,9.61s-14.63-3.14-20.33-9.6c-5.63-6.43-8.49-14.32-8.49-23.45s2.86-17.01,8.49-23.45c5.7-6.46,12.35-9.61,20.33-9.61s14.63,3.14,20.33,9.61c5.67,6.43,8.54,14.32,8.54,23.45m-1.94-29.59c-7.38-8.23-16.44-12.4-26.93-12.4-5.14,0-10.13,1.13-14.84,3.35-4.55,2.11-8.62,5.16-12.09,9.04-7.37,8.14-11.11,18.1-11.11,29.59s3.74,21.45,11.11,29.59c7.41,8.22,16.47,12.39,26.92,12.39,5.14,0,10.13-1.13,14.84-3.35,4.55-2.11,8.62-5.16,12.09-9.04,7.37-8.14,11.11-18.1,11.11-29.59s-3.74-21.44-11.1-29.58"/>
  <path class="cls-3" d="m119.62,193.78c7.97,0,15.64-1.27,22.83-3.61l11.33-22.24c-9.63,6.88-21.42,10.93-34.16,10.93-32.53,0-58.91-26.37-58.91-58.91s26.37-58.91,58.91-58.91c14.65,0,28.05,5.36,38.35,14.22l6.93-13.61c-12.5-9.73-28.22-15.52-45.29-15.52-40.77,0-73.82,33.05-73.82,73.82s33.05,73.82,73.82,73.82"/>
  <path class="cls-5" d="m119.62,205.43c5.4,0,10.68-.5,15.8-1.46l5.26-10.31c-6.76,1.92-13.83,2.93-21.05,2.93-20.47,0-39.71-7.97-54.19-22.44-14.47-14.47-22.44-33.72-22.44-54.19s7.97-39.71,22.44-54.19c14.47-14.47,33.72-22.45,54.19-22.45,17.07,0,33.28,5.55,46.59,15.78l4.07-7.99c-14.18-10.45-31.7-16.63-50.66-16.63-47.21,0-85.47,38.27-85.47,85.47s38.27,85.47,85.47,85.47"/>
  <path class="cls-1" d="m129.01,216.55l4.81-9.44c-4.65.75-9.4,1.14-14.2,1.14-23.58,0-45.75-9.18-62.43-25.86s-25.86-38.85-25.86-62.43,9.18-45.75,25.86-62.43c16.67-16.68,38.85-25.86,62.43-25.86,18.94,0,36.96,5.93,51.96,16.89l4.02-7.9c-15.82-11.19-35.13-17.77-55.99-17.77-53.6,0-97.06,43.45-97.06,97.06s43.45,97.06,97.06,97.06c3.17,0,6.3-.17,9.39-.47"/>
  <path class="cls-4" d="m123.15,228.05l4.35-8.54c-2.61.2-5.24.32-7.88.32-26.68,0-51.76-10.39-70.62-29.25-18.86-18.86-29.25-43.94-29.25-70.62s10.39-51.76,29.25-70.62c18.86-18.86,43.94-29.25,70.62-29.25,20.79,0,40.62,6.31,57.28,18.03l3.79-7.43c-17.38-11.91-38.41-18.89-61.07-18.89C59.89,11.8,11.46,60.23,11.46,119.96s48.43,108.16,108.16,108.16c1.18,0,2.36-.03,3.53-.07"/>
  <path class="cls-2" d="m121.7,230.9c-.69.01-1.38.03-2.08.03-29.64,0-57.51-11.54-78.47-32.5-20.96-20.96-32.5-48.83-32.5-78.47s11.54-57.51,32.5-78.47C62.11,20.53,89.98,8.99,119.62,8.99c22.58,0,44.12,6.7,62.37,19.15l4.12-8.08C167.11,7.39,144.3,0,119.75,0,53.61,0,0,53.61,0,119.75s52.32,118.43,117.34,119.72l4.37-8.57h0Z"/>
</svg>