<svg width="528" height="117" viewBox="0 0 528 117" fill="none" xmlns="http://www.w3.org/2000/svg">
<path d="M40.1 114H40.2H40.1ZM48.8 109.2C48.7 109.3 48.7 109.4 48.6 109.5C48.7 109.4 48.7 109.3 48.8 109.2ZM48.4 109.8C48.3 109.9 48.2 110 48.2 110.1C48.2 110 48.3 109.9 48.4 109.8ZM34.5 112.4C34.7 112.5 34.9 112.6 35.1 112.7C34.9 112.6 34.7 112.5 34.5 112.4ZM106.7 110.2C106.7 110.1 106.8 110 106.9 109.9C106.8 110 106.7 110.1 106.7 110.2ZM93.2 112.5C93.3 112.5 93.4 112.6 93.5 112.6C93.4 112.6 93.3 112.5 93.2 112.5ZM94.6 113.2C94.5 113.1 94.4 113.1 94.3 113C94.2 113 94.2 113 94.2 113C94.3 113 94.5 113.1 94.6 113.2ZM107.5 108.9C107.4 109 107.4 109.1 107.3 109.2C107.4 109.1 107.4 109 107.5 108.9ZM90.3 109.6C90.5 109.8 90.6 110 90.7 110.2C90.6 110 90.5 109.8 90.3 109.6ZM92.7 112.1C92.6 112 92.5 111.9 92.4 111.9C92.5 111.9 92.6 112 92.7 112.1ZM91.4 110.9C91.3 110.9 91.2 110.8 91.2 110.7C91.2 110.8 91.3 110.9 91.4 110.9ZM91.7 111.2C91.7 111.3 91.8 111.3 91.9 111.4C91.8 111.3 91.7 111.3 91.7 111.2ZM92.2 111.7C92.1 111.6 92 111.5 91.9 111.4C92 111.5 92.1 111.6 92.2 111.7ZM138.1 43.1C138.1 44.7 137.7 46.1 137.1 47.5L107.9 108.2C107.9 108.2 107.9 108.2 107.8 108.3C107.9 108.2 107.9 108.2 107.9 108.2L107.8 108.3C107.8 108.4 107.7 108.5 107.7 108.5C107.7 108.6 107.6 108.7 107.6 108.8C107.5 108.9 107.5 108.9 107.5 108.9C107.4 109.1 107.3 109.3 107.1 109.5C107.2 109.4 107.2 109.3 107.3 109.2C107.2 109.3 107.2 109.5 107.1 109.6C107 109.7 106.9 109.8 106.9 109.9C106.9 109.8 107 109.7 107.1 109.6C106.9 109.9 106.7 110.1 106.6 110.3C106.6 110.3 106.6 110.2 106.7 110.2C106.6 110.2 106.6 110.3 106.5 110.3C106.5 110.4 106.5 110.4 106.4 110.4C106.4 110.5 106.3 110.6 106.2 110.7C106.3 110.6 106.4 110.5 106.4 110.4C105.4 111.6 104.2 112.6 102.7 113.2C102.4 113.4 102.1 113.5 101.7 113.6C101.5 113.7 101.2 113.7 100.9 113.8C100.2 114 99.4 114 98.7 114C99 114 99.3 114 99.6 114C99.3 114 99 114 98.7 114C97 114 95.4 113.6 94 112.9C94.1 112.9 94.1 112.9 94.2 113C94.1 112.9 94 112.9 93.9 112.9C93.9 112.8 93.8 112.8 93.8 112.8C93.7 112.7 93.6 112.7 93.5 112.6C93.6 112.7 93.7 112.7 93.7 112.7C93.5 112.6 93.3 112.5 93.1 112.4C93.2 112.4 93.2 112.4 93.2 112.5C93.2 112.4 93.1 112.4 93.1 112.3C93 112.3 93 112.3 93 112.3C92.9 112.2 92.8 112.1 92.7 112.1C92.8 112.1 92.9 112.2 92.9 112.3C92.7 112.1 92.5 111.9 92.3 111.8C92.3 111.8 92.4 111.8 92.4 111.9C92.3 111.8 92.2 111.7 92.2 111.7C92 111.5 91.8 111.3 91.6 111.1C91.6 111.1 91.6 111.2 91.7 111.2C91.6 111.1 91.5 111 91.4 110.9C91.4 111 91.4 111 91.5 111C91.3 110.8 91.1 110.6 90.9 110.4C91 110.5 91.1 110.6 91.2 110.7C91.1 110.6 91 110.5 90.9 110.4C90.9 110.4 90.9 110.4 90.8 110.3C90.8 110.3 90.8 110.2 90.7 110.2C90.8 110.2 90.8 110.3 90.8 110.3C90.4 109.7 90 109.1 89.6 108.5C89.6 108.4 89.6 108.4 89.6 108.3L89.1 107.4L69.4 66.5L49.3 108.2V108.3C49.2 108.4 49.2 108.5 49.1 108.5C49.2 108.5 49.2 108.4 49.3 108.3H49.2C49.2 108.4 49.2 108.5 49.1 108.6C49.1 108.5 49.1 108.5 49.1 108.5V108.6C49.1 108.6 49 108.7 49 108.8C49 108.8 49 108.9 48.9 108.9C49 108.9 49 108.9 49 108.8C48.8 109.1 48.7 109.3 48.6 109.5C48.6 109.5 48.6 109.5 48.5 109.6C48.4 109.7 48.4 109.8 48.4 109.8C48.4 109.8 48.4 109.7 48.5 109.7C48.3 109.9 48.2 110.1 48 110.3C48.1 110.2 48.1 110.1 48.2 110.1C48.1 110.1 48.1 110.2 48 110.3L47.9 110.4C47.8 110.5 47.8 110.5 47.7 110.6C47.8 110.5 47.8 110.5 47.9 110.4C46.9 111.6 45.6 112.6 44.1 113.2C43.5 113.5 42.8 113.7 42.2 113.8C41.5 114 40.8 114 40.2 114C40.5 114 40.8 114 41 114C40.7 114 40.4 114 40.1 114C38.4 114 36.9 113.6 35.5 112.9C35.6 113 35.7 113 35.8 113.1C35.8 113.1 35.7 113.1 35.7 113C35.6 113 35.6 112.9 35.5 112.9C35.4 112.9 35.3 112.8 35.2 112.8C35.2 112.8 35.2 112.8 35.1 112.7C35.2 112.7 35.2 112.8 35.2 112.8C33.4 111.8 31.9 110.2 31 108.3V108.2L1.7 47.5C1.1 46.1 0.700001 44.7 0.700001 43.1C0.700001 37.5 5.2 32.9 10.8 32.9C14.9 32.9 18.3 35.3 20 38.7L40.1 80.5L60.3 38.7C60.3 38.6 60.3 38.6 60.4 38.5C62.1 35.2 65.5 32.9 69.4 32.9C73.4 32.9 76.9 35.3 78.5 38.7L78.6 38.8L98.7 80.5L118.8 38.7C120.5 35.3 123.9 32.9 128 32.9C133.6 32.9 138.1 37.5 138.1 43.1ZM107.7 108.5C107.7 108.5 107.8 108.4 107.8 108.3C107.8 108.4 107.7 108.5 107.7 108.5ZM245.63 42.7V104.2C245.63 109.8 241.13 114.4 235.53 114.4C230.73 114.4 226.73 111.1 225.63 106.7C218.23 112.5 209.33 115.4 200.53 115.4C183.73 115.4 168.93 105 162.63 89.8C151.33 62.5 171.03 31.8 200.53 31.8C209.63 31.8 218.43 34.8 225.63 40.5C226.63 36 230.63 32.6 235.53 32.6C241.13 32.6 245.63 37.1 245.63 42.7ZM200.53 95.2C217.13 95.1 227.13 75.8 217.73 61.5C213.93 55.7 207.63 52.1 200.53 52.1C189.03 52.1 179.73 61.7 179.73 73.6C179.73 85.5 189.03 95.1 200.53 95.2ZM332.263 103.5C332.263 108.6 328.463 112.8 323.563 113.5C323.463 113.5 323.263 113.5 323.163 113.6C300.063 116.8 287.363 103.5 287.263 84.8V50.2H281.063C275.463 50.2 270.963 45.7 270.963 40.1C270.963 34.5 275.463 29.9 281.063 29.9H287.263V10.8C287.263 5.19999 291.863 0.599994 297.463 0.599994C303.063 0.599994 307.563 5.19999 307.563 10.8V29.9H321.563C327.163 29.9 331.663 34.5 331.663 40.1C331.663 45.7 327.163 50.2 321.563 50.2H307.563V85.3C307.563 93.2 312.663 94.6 320.663 93.4V93.5C321.163 93.4 321.663 93.3 322.163 93.3C327.763 93.3 332.263 97.9 332.263 103.5ZM417.001 86.9C422.601 86.9 427.101 91.4 427.101 97C427.101 100.1 425.801 102.8 423.601 104.7C419.801 108 415.401 110.7 410.501 112.5C405.701 114.4 400.401 115.4 394.901 115.4C390.501 115.4 386.101 114.7 382.101 113.5C378.001 112.2 374.201 110.4 370.701 108.2C363.801 103.6 358.301 97.2 355.001 89.5C352.701 84.4 351.501 78.7 351.501 72.8C351.501 35.7 396.701 16.7 424.201 41.5C426.301 43.4 427.601 46.1 427.601 49.1C427.601 54.7 423.101 59.2 417.501 59.2C414.901 59.2 412.501 58.2 410.701 56.6C396.001 43.4 371.801 53.3 371.801 72.8C371.801 75.1 372.101 77.3 372.801 79.4C373.501 81.4 374.401 83.4 375.701 85.2C378.101 88.7 381.701 91.6 385.801 93.3C388.601 94.4 391.601 95.1 394.901 95.1C397.901 95.1 400.701 94.5 403.301 93.5C405.901 92.6 408.201 91.2 410.201 89.5C412.001 87.9 414.401 86.9 417.001 86.9ZM527.102 67.7V103.9C527.102 109.5 522.602 114 517.002 114C511.402 114 506.902 109.5 506.902 103.9V67.7C506.902 49.8 481.502 45.8 474.702 61.5C473.802 63.4 473.402 65.5 473.402 67.7V103.8C473.402 103.9 473.402 103.9 473.402 103.9C473.402 109.5 468.802 114 463.202 114C457.602 114 453.102 109.5 453.102 103.9C453.102 103.9 453.102 103.9 453.102 103.8V11.9C453.102 6.3 457.602 1.79999 463.202 1.79999C468.802 1.79999 473.402 6.3 473.402 11.9V35.3C497.902 23.1 527.102 40.4 527.102 67.5C527.102 67.6 527.102 67.6 527.102 67.7Z" fill="black"/>
</svg>
