<svg width="100" height="100" viewBox="0 0 25 25" fill="none" xmlns="http://www.w3.org/2000/svg">
<circle cx="12.5" cy="12.5" r="12.5" fill="#EFF6FF"/>
<g clip-path="url(#clip0_22_22)">
<path d="M8.125 8.125C8.125 7.95924 8.19085 7.80027 8.30806 7.68306C8.42527 7.56585 8.58424 7.5 8.75 7.5H10C10.1658 7.5 10.3247 7.56585 10.4419 7.68306C10.5592 7.80027 10.625 7.95924 10.625 8.125V16.875C10.625 17.0408 10.5592 17.1997 10.4419 17.3169C10.3247 17.4342 10.1658 17.5 10 17.5H8.75C8.58424 17.5 8.42527 17.4342 8.30806 17.3169C8.19085 17.1997 8.125 17.0408 8.125 16.875V8.125Z" stroke="#2463EB" stroke-linecap="round" stroke-linejoin="round"/>
<path d="M10.625 8.125C10.625 7.95924 10.6908 7.80027 10.8081 7.68306C10.9253 7.56585 11.0842 7.5 11.25 7.5H12.5C12.6658 7.5 12.8247 7.56585 12.9419 7.68306C13.0592 7.80027 13.125 7.95924 13.125 8.125V16.875C13.125 17.0408 13.0592 17.1997 12.9419 17.3169C12.8247 17.4342 12.6658 17.5 12.5 17.5H11.25C11.0842 17.5 10.9253 17.4342 10.8081 17.3169C10.6908 17.1997 10.625 17.0408 10.625 16.875V8.125Z" stroke="#2463EB" stroke-linecap="round" stroke-linejoin="round"/>
<path d="M8.125 10H10.625" stroke="#2463EB" stroke-linecap="round" stroke-linejoin="round"/>
<path d="M10.625 15H13.125" stroke="#2463EB" stroke-linecap="round" stroke-linejoin="round"/>
<path d="M13.6269 7.84984L14.9919 7.51859C15.3432 7.43422 15.7 7.63734 15.7932 7.97609L18.1025 16.3623C18.1433 16.5159 18.1252 16.6791 18.052 16.82C17.9787 16.9609 17.8554 17.0694 17.7063 17.1242L17.6232 17.1498L16.2582 17.4811C15.9069 17.5655 15.55 17.3623 15.4569 17.0236L13.1475 8.63734C13.1068 8.48381 13.1248 8.3206 13.1981 8.17968C13.2714 8.03875 13.3947 7.93027 13.5438 7.87547L13.6269 7.84984Z" stroke="#2463EB" stroke-linecap="round" stroke-linejoin="round"/>
<path d="M13.75 10.625L16.25 10" stroke="#2463EB" stroke-linecap="round" stroke-linejoin="round"/>
<path d="M15 15.0002L17.4519 14.3877" stroke="#2463EB" stroke-linecap="round" stroke-linejoin="round"/>
</g>
<defs>
<clipPath id="clip0_22_22">
<rect width="15" height="15" fill="white" transform="translate(5 5)"/>
</clipPath>
</defs>
</svg>
