<svg width="100" height="100" viewBox="0 0 25 25" fill="none" xmlns="http://www.w3.org/2000/svg">
<circle cx="12.5" cy="12.5" r="12.5" fill="#EFF6FF"/>
<g clip-path="url(#clip0_21_2)">
<path d="M8.125 9.375C8.125 10.038 8.38839 10.6739 8.85723 11.1428C9.32607 11.6116 9.96196 11.875 10.625 11.875C11.288 11.875 11.9239 11.6116 12.3928 11.1428C12.8616 10.6739 13.125 10.038 13.125 9.375C13.125 8.71196 12.8616 8.07607 12.3928 7.60723C11.9239 7.13839 11.288 6.875 10.625 6.875C9.96196 6.875 9.32607 7.13839 8.85723 7.60723C8.38839 8.07607 8.125 8.71196 8.125 9.375Z" stroke="#2463EB" stroke-linecap="round" stroke-linejoin="round"/>
<path d="M6.875 18.125V16.875C6.875 16.212 7.13839 15.5761 7.60723 15.1072C8.07607 14.6384 8.71196 14.375 9.375 14.375H11.875C12.538 14.375 13.1739 14.6384 13.6428 15.1072C14.1116 15.5761 14.375 16.212 14.375 16.875V18.125" stroke="#2463EB" stroke-linecap="round" stroke-linejoin="round"/>
<path d="M15 6.95605C15.5378 7.09374 16.0144 7.40649 16.3548 7.845C16.6952 8.2835 16.8799 8.82282 16.8799 9.37793C16.8799 9.93304 16.6952 10.4724 16.3548 10.9109C16.0144 11.3494 15.5378 11.6621 15 11.7998" stroke="#2463EB" stroke-linecap="round" stroke-linejoin="round"/>
<path d="M18.125 18.125V16.875C18.1218 16.3232 17.9362 15.788 17.597 15.3528C17.2579 14.9175 16.7843 14.6067 16.25 14.4688" stroke="#2463EB" stroke-linecap="round" stroke-linejoin="round"/>
</g>
<defs>
<clipPath id="clip0_21_2">
<rect width="15" height="15" fill="white" transform="translate(5 5)"/>
</clipPath>
</defs>
</svg>
