<svg width="100" height="100" viewBox="0 0 25 25" fill="none" xmlns="http://www.w3.org/2000/svg">
<circle cx="12.5" cy="12.5" r="12.5" fill="#EFF6FF" />
<g clip-path="url(#clip0_19_14)">
<path d="M10 9.375C10 10.038 10.2634 10.6739 10.7322 11.1428C11.2011 11.6116 11.837 11.875 12.5 11.875C13.163 11.875 13.7989 11.6116 14.2678 11.1428C14.7366 10.6739 15 10.038 15 9.375C15 8.71196 14.7366 8.07607 14.2678 7.60723C13.7989 7.13839 13.163 6.875 12.5 6.875C11.837 6.875 11.2011 7.13839 10.7322 7.60723C10.2634 8.07607 10 8.71196 10 9.375Z" stroke="#2463EB" stroke-linecap="round" stroke-linejoin="round"/>
<path d="M8.75 18.125V16.875C8.75 16.212 9.01339 15.5761 9.48223 15.1072C9.95107 14.6384 10.587 14.375 11.25 14.375H13.75C14.413 14.375 15.0489 14.6384 15.5178 15.1072C15.9866 15.5761 16.25 16.212 16.25 16.875V18.125" stroke="#2463EB" stroke-linecap="round" stroke-linejoin="round"/>
</g>
<defs>
<clipPath id="clip0_19_14">
<rect width="15" height="15" fill="white" transform="translate(5 5)"/>
</clipPath>
</defs>
</svg>
